<svg width="332" height="36" viewBox="0 0 332 36" fill="none" xmlns="http://www.w3.org/2000/svg">
<path d="M332 18L11 18" stroke="url(#paint0_linear_22_2137)" stroke-width="4" stroke-dasharray="16 16"/>
<path d="M26.2733 10.1027L26.2774 10.0945L26.2813 10.0862L26.29 10.0679C26.2903 10.0673 26.2906 10.0667 26.2909 10.066C26.5517 9.52127 26.6306 8.90712 26.5161 8.31407C26.402 7.72371 26.1022 7.18537 25.6606 6.77759C25.2265 6.36593 24.6727 6.10285 24.0791 6.0265C23.4869 5.95032 22.8859 6.06401 22.3626 6.351L3.17085 16.3622L3.14764 16.3743L3.1251 16.3876L3.11852 16.3915C2.65839 16.65 2.27913 17.0315 2.02321 17.4934C1.76494 17.9594 1.64266 18.4886 1.67029 19.0208C1.69791 19.5529 1.87433 20.0666 2.17948 20.5034C2.47848 20.9315 2.88932 21.2688 3.36687 21.4789C3.39179 21.4908 3.41715 21.5017 3.44289 21.5117L23.5372 29.5277C24.0785 29.7568 24.6779 29.8111 25.2518 29.6828C25.8286 29.5539 26.3502 29.247 26.7431 28.8055L26.7636 28.7829L26.7687 28.7772C27.1705 28.3256 27.4166 27.7568 27.4706 27.1548C27.5247 26.5533 27.3842 25.9503 27.0699 25.4347C27.0696 25.4342 27.0693 25.4337 27.069 25.4332L27.0583 25.4155L27.0535 25.4076L27.0486 25.3998L22.3586 17.9693L26.2733 10.1027Z" fill="#2D2D2D"/>
<path d="M26.2733 10.1027L26.2774 10.0945L26.2813 10.0862L26.29 10.0679C26.2903 10.0673 26.2906 10.0667 26.2909 10.066C26.5517 9.52127 26.6306 8.90712 26.5161 8.31407C26.402 7.72371 26.1022 7.18537 25.6606 6.77759C25.2265 6.36593 24.6727 6.10285 24.0791 6.0265C23.4869 5.95032 22.8859 6.06401 22.3626 6.351L3.17085 16.3622L3.14764 16.3743L3.1251 16.3876L3.11852 16.3915C2.65839 16.65 2.27913 17.0315 2.02321 17.4934C1.76494 17.9594 1.64266 18.4886 1.67029 19.0208C1.69791 19.5529 1.87433 20.0666 2.17948 20.5034C2.47848 20.9315 2.88932 21.2688 3.36687 21.4789C3.39179 21.4908 3.41715 21.5017 3.44289 21.5117L23.5372 29.5277C24.0785 29.7568 24.6779 29.8111 25.2518 29.6828C25.8286 29.5539 26.3502 29.247 26.7431 28.8055L26.7636 28.7829L26.7687 28.7772C27.1705 28.3256 27.4166 27.7568 27.4706 27.1548C27.5247 26.5533 27.3842 25.9503 27.0699 25.4347C27.0696 25.4342 27.0693 25.4337 27.069 25.4332L27.0583 25.4155L27.0535 25.4076L27.0486 25.3998L22.3586 17.9693L26.2733 10.1027Z" stroke="white" stroke-width="2"/>
<path d="M26.2733 10.1027L26.2774 10.0945L26.2813 10.0862L26.29 10.0679C26.2903 10.0673 26.2906 10.0667 26.2909 10.066C26.5517 9.52127 26.6306 8.90712 26.5161 8.31407C26.402 7.72371 26.1022 7.18537 25.6606 6.77759C25.2265 6.36593 24.6727 6.10285 24.0791 6.0265C23.4869 5.95032 22.8859 6.06401 22.3626 6.351L3.17085 16.3622L3.14764 16.3743L3.1251 16.3876L3.11852 16.3915C2.65839 16.65 2.27913 17.0315 2.02321 17.4934C1.76494 17.9594 1.64266 18.4886 1.67029 19.0208C1.69791 19.5529 1.87433 20.0666 2.17948 20.5034C2.47848 20.9315 2.88932 21.2688 3.36687 21.4789C3.39179 21.4908 3.41715 21.5017 3.44289 21.5117L23.5372 29.5277C24.0785 29.7568 24.6779 29.8111 25.2518 29.6828C25.8286 29.5539 26.3502 29.247 26.7431 28.8055L26.7636 28.7829L26.7687 28.7772C27.1705 28.3256 27.4166 27.7568 27.4706 27.1548C27.5247 26.5533 27.3842 25.9503 27.0699 25.4347C27.0696 25.4342 27.0693 25.4337 27.069 25.4332L27.0583 25.4155L27.0535 25.4076L27.0486 25.3998L22.3586 17.9693L26.2733 10.1027Z" stroke="black" stroke-opacity="0.1" stroke-width="2"/>
<defs>
<linearGradient id="paint0_linear_22_2137" x1="332" y1="17.5" x2="11" y2="17.5" gradientUnits="userSpaceOnUse">
<stop stop-color="#FFDF00"/>
<stop offset="1" stop-color="#FDCC0D"/>
</linearGradient>
</defs>
</svg>
