<svg width="14" height="17" viewBox="0 0 14 17" fill="none" xmlns="http://www.w3.org/2000/svg">
<g id="linkedin-in 1" clip-path="url(#clip0_22_1276)">
<path id="Vector" d="M3.13375 14.4596H0.23125V5.11277H3.13375V14.4596ZM1.68094 3.83777C0.752813 3.83777 0 3.06902 0 2.1409C6.64312e-09 1.69509 0.177098 1.26753 0.492335 0.952296C0.807572 0.637059 1.23513 0.459961 1.68094 0.459961C2.12675 0.459961 2.5543 0.637059 2.86954 0.952296C3.18478 1.26753 3.36188 1.69509 3.36188 2.1409C3.36188 3.06902 2.60875 3.83777 1.68094 3.83777ZM13.9969 14.4596H11.1006V9.90965C11.1006 8.82527 11.0787 7.43465 9.59156 7.43465C8.0825 7.43465 7.85125 8.61277 7.85125 9.83152V14.4596H4.95188V5.11277H7.73562V6.38777H7.77625C8.16375 5.6534 9.11031 4.8784 10.5225 4.8784C13.46 4.8784 14 6.81277 14 9.32527V14.4596H13.9969Z" fill="white"/>
</g>
<defs>
<clipPath id="clip0_22_1276">
<rect width="14" height="16" fill="white" transform="translate(0 0.459961)"/>
</clipPath>
</defs>
</svg>
