<svg width="191" height="286" viewBox="0 0 191 286" fill="none" xmlns="http://www.w3.org/2000/svg">
<path d="M11.5 285H89.7707C137.653 285 176.747 246.717 177.751 198.845L179 139.312L177.846 87.0564C176.789 39.2244 137.711 1 89.867 1H0" stroke="url(#paint0_linear_22_4201)" stroke-width="1.5" stroke-linejoin="round" stroke-dasharray="5.17 5.17"/>
<path d="M185.799 94.7973L185.793 94.7919C185.444 94.4443 184.993 94.2179 184.506 94.1463C184.019 94.0746 183.521 94.1614 183.087 94.3938L183.075 94.4002L183.067 94.4045L183.059 94.409L177.722 97.3697L172.421 94.3466L172.413 94.342L172.405 94.3376L172.393 94.3313C172.393 94.3309 172.392 94.3306 172.391 94.3302C171.96 94.0932 171.465 94.0008 170.977 94.0667C170.492 94.1322 170.041 94.3508 169.689 94.6905C169.335 95.0245 169.096 95.4623 169.007 95.9409C168.918 96.4181 168.982 96.9111 169.191 97.3492L175.542 111.41L175.553 111.434L175.565 111.457L175.566 111.459C175.755 111.844 176.047 112.168 176.41 112.397C176.777 112.628 177.201 112.752 177.634 112.754C178.068 112.756 178.494 112.636 178.862 112.408C179.223 112.186 179.515 111.869 179.708 111.492C179.72 111.47 179.731 111.448 179.741 111.425L186.254 97.4494C186.464 97.0204 186.535 96.5363 186.457 96.0647C186.379 95.59 186.154 95.1518 185.813 94.812L185.799 94.7973Z" fill="#2D2D2D"/>
<path d="M185.799 94.7973L185.793 94.7919C185.444 94.4443 184.993 94.2179 184.506 94.1463C184.019 94.0746 183.521 94.1614 183.087 94.3938L183.075 94.4002L183.067 94.4045L183.059 94.409L177.722 97.3697L172.421 94.3466L172.413 94.342L172.405 94.3376L172.393 94.3313C172.393 94.3309 172.392 94.3306 172.391 94.3302C171.96 94.0932 171.465 94.0008 170.977 94.0667C170.492 94.1322 170.041 94.3508 169.689 94.6905C169.335 95.0245 169.096 95.4623 169.007 95.9409C168.918 96.4181 168.982 96.9111 169.191 97.3492L175.542 111.41L175.553 111.434L175.565 111.457L175.566 111.459C175.755 111.844 176.047 112.168 176.41 112.397C176.777 112.628 177.201 112.752 177.634 112.754C178.068 112.756 178.494 112.636 178.862 112.408C179.223 112.186 179.515 111.869 179.708 111.492C179.72 111.47 179.731 111.448 179.741 111.425L186.254 97.4494C186.464 97.0204 186.535 96.5363 186.457 96.0647C186.379 95.59 186.154 95.1518 185.813 94.812L185.799 94.7973Z" stroke="white" stroke-width="2"/>
<path d="M185.799 94.7973L185.793 94.7919C185.444 94.4443 184.993 94.2179 184.506 94.1463C184.019 94.0746 183.521 94.1614 183.087 94.3938L183.075 94.4002L183.067 94.4045L183.059 94.409L177.722 97.3697L172.421 94.3466L172.413 94.342L172.405 94.3376L172.393 94.3313C172.393 94.3309 172.392 94.3306 172.391 94.3302C171.96 94.0932 171.465 94.0008 170.977 94.0667C170.492 94.1322 170.041 94.3508 169.689 94.6905C169.335 95.0245 169.096 95.4623 169.007 95.9409C168.918 96.4181 168.982 96.9111 169.191 97.3492L175.542 111.41L175.553 111.434L175.565 111.457L175.566 111.459C175.755 111.844 176.047 112.168 176.41 112.397C176.777 112.628 177.201 112.752 177.634 112.754C178.068 112.756 178.494 112.636 178.862 112.408C179.223 112.186 179.515 111.869 179.708 111.492C179.72 111.47 179.731 111.448 179.741 111.425L186.254 97.4494C186.464 97.0204 186.535 96.5363 186.457 96.0647C186.379 95.59 186.154 95.1518 185.813 94.812L185.799 94.7973Z" stroke="black" stroke-opacity="0.1" stroke-width="2"/>
<defs>
<linearGradient id="paint0_linear_22_4201" x1="0" y1="143" x2="179" y2="143" gradientUnits="userSpaceOnUse">
<stop stop-color="#FFDF00"/>
<stop offset="1" stop-color="#FDCC0D"/>
</linearGradient>
</defs>
</svg>
