<svg width="248" height="74" viewBox="0 0 248 74" fill="none" xmlns="http://www.w3.org/2000/svg">
<path d="M124.732 1.1652C124.823 0.761155 124.569 0.359654 124.165 0.268419C123.761 0.177184 123.36 0.430763 123.268 0.834804L124.732 1.1652ZM109.671 13.9502L109.358 13.2684L109.671 13.9502ZM91.3563 19.7739L91.5475 20.4992L91.3563 19.7739ZM49.249 30.1954L49.4262 30.9242L49.249 30.1954ZM27.295 36.6705L27.6593 37.3261L27.295 36.6705ZM15.5326 45.4828L15.0426 44.915L15.5326 45.4828ZM5.84357 59.2559C6.0496 58.8965 5.92532 58.4382 5.56598 58.2322C5.20664 58.0261 4.74832 58.1504 4.54229 58.5098L5.84357 59.2559ZM7.08162 54.3186C6.85634 54.6662 6.95551 55.1306 7.30311 55.3558C7.65071 55.5811 8.11511 55.4819 8.34038 55.1343L7.08162 54.3186ZM11.1147 51.2296C11.3708 50.9041 11.3145 50.4326 10.9889 50.1765C10.6634 49.9204 10.1918 49.9767 9.93575 50.3022L11.1147 51.2296ZM13.2214 46.6008C12.9273 46.8924 12.9253 47.3673 13.2169 47.6614C13.5086 47.9556 13.9835 47.9576 14.2776 47.6659L13.2214 46.6008ZM18.8144 43.6695C19.1321 43.4038 19.1742 42.9308 18.9085 42.6131C18.6427 42.2953 18.1697 42.2532 17.852 42.519L18.8144 43.6695ZM23.7461 37.9905C23.4038 38.2237 23.3152 38.6902 23.5484 39.0326C23.7816 39.3749 24.2481 39.4635 24.5905 39.2303L23.7461 37.9905ZM30.1702 36.0857C30.5494 35.9191 30.7217 35.4766 30.5551 35.0974C30.3885 34.7181 29.946 34.5458 29.5668 34.7124L30.1702 36.0857ZM35.0618 32.7474C34.6643 32.8637 34.4363 33.2803 34.5526 33.6779C34.669 34.0754 35.0856 34.3034 35.4831 34.187L35.0618 32.7474ZM41.0034 32.79C41.4075 32.6991 41.6614 32.2978 41.5706 31.8937C41.4797 31.4896 41.0784 31.2356 40.6743 31.3265L41.0034 32.79ZM46.2897 30.1066C45.8851 30.1956 45.6294 30.5957 45.7184 31.0002C45.8075 31.4048 46.2076 31.6605 46.6121 31.5715L46.2897 30.1066ZM52.0604 30.2848C52.4629 30.1873 52.7102 29.7818 52.6126 29.3793C52.5151 28.9767 52.1096 28.7295 51.7071 28.827L52.0604 30.2848ZM56.9779 27.552C56.5752 27.6493 56.3277 28.0546 56.425 28.4572C56.5223 28.8598 56.9276 29.1074 57.3302 29.0101L56.9779 27.552ZM62.601 27.736C63.0036 27.6386 63.2509 27.2332 63.1535 26.8306C63.0561 26.4281 62.6507 26.1807 62.2481 26.2781L62.601 27.736ZM67.5166 24.9998C67.1141 25.0978 66.8673 25.5035 66.9653 25.9059C67.0632 26.3084 67.4689 26.5552 67.8714 26.4572L67.5166 24.9998ZM73.1401 25.1683C73.5424 25.0694 73.7882 24.6631 73.6893 24.2609C73.5903 23.8586 73.1841 23.6128 72.7818 23.7117L73.1401 25.1683ZM78.0426 22.4085C77.6407 22.5088 77.3962 22.9159 77.4965 23.3178C77.5969 23.7197 78.004 23.9642 78.4059 23.8638L78.0426 22.4085ZM83.6671 22.5384C84.0686 22.4363 84.3112 22.0281 84.2091 21.6267C84.107 21.2252 83.6988 20.9826 83.2973 21.0847L83.6671 22.5384ZM88.5447 19.735C88.1439 19.8393 87.9035 20.2488 88.0078 20.6497C88.1121 21.0506 88.5216 21.291 88.9225 21.1866L88.5447 19.735ZM93.8731 19.8898C94.2738 19.785 94.5137 19.3751 94.4088 18.9744C94.304 18.5737 93.8941 18.3338 93.4934 18.4387L93.8731 19.8898ZM98.1286 17.1965C97.7296 17.3078 97.4964 17.7215 97.6078 18.1205C97.7191 18.5195 98.1328 18.7526 98.5317 18.6413L98.1286 17.1965ZM103.17 17.2511C103.564 17.1229 103.78 16.6997 103.651 16.3058C103.523 15.9119 103.1 15.6965 102.706 15.8247L103.17 17.2511ZM107.18 14.2059C106.796 14.3613 106.611 14.7985 106.766 15.1824C106.921 15.5664 107.358 15.7518 107.742 15.5965L107.18 14.2059ZM112.252 13.5275C112.62 13.3375 112.764 12.885 112.574 12.517C112.384 12.149 111.932 12.0047 111.564 12.1947L112.252 13.5275ZM115.785 9.71925C115.441 9.9499 115.349 10.4158 115.58 10.7598C115.811 11.1039 116.277 11.1958 116.621 10.9652L115.785 9.71925ZM120.619 7.78824C120.917 7.50071 120.926 7.02591 120.638 6.72776C120.351 6.4296 119.876 6.42099 119.578 6.70853L120.619 7.78824ZM122.469 2.98214C122.278 3.34982 122.422 3.80251 122.789 3.99326C123.157 4.18401 123.61 4.04058 123.801 3.6729L122.469 2.98214ZM4.65562 61.3642C5.04997 60.6544 5.44481 59.9514 5.84357 59.2559L4.54229 58.5098C4.13917 59.2129 3.74087 59.9221 3.34438 60.6358L4.65562 61.3642ZM8.34038 55.1343C9.21381 53.7866 10.1295 52.4821 11.1147 51.2296L9.93575 50.3022C8.91697 51.5974 7.97483 52.9403 7.08162 54.3186L8.34038 55.1343ZM14.2776 47.6659C14.8354 47.1128 15.416 46.574 16.0226 46.0506L15.0426 44.915C14.4089 45.4618 13.803 46.0242 13.2214 46.6008L14.2776 47.6659ZM16.0226 46.0506C16.9355 45.2627 17.8657 44.463 18.8144 43.6695L17.852 42.519C16.8938 43.3204 15.9562 44.1265 15.0426 44.915L16.0226 46.0506ZM24.5905 39.2303C25.6007 38.5423 26.6239 37.9013 27.6593 37.3261L26.9308 36.0149C25.8491 36.6158 24.7871 37.2816 23.7461 37.9905L24.5905 39.2303ZM27.6593 37.3261C28.4703 36.8756 29.3088 36.4642 30.1702 36.0857L29.5668 34.7124C28.6672 35.1076 27.7866 35.5395 26.9308 36.0149L27.6593 37.3261ZM35.4831 34.187C37.2916 33.6578 39.143 33.2083 41.0034 32.79L40.6743 31.3265C38.7993 31.7481 36.9134 32.2055 35.0618 32.7474L35.4831 34.187ZM46.6121 31.5715C47.5606 31.3627 48.5009 31.1491 49.4262 30.9242L49.0719 29.4666C48.161 29.6881 47.2322 29.8991 46.2897 30.1066L46.6121 31.5715ZM49.4262 30.9242C50.3041 30.7107 51.1822 30.4977 52.0604 30.2848L51.7071 28.827C50.8286 29.0399 49.9502 29.2531 49.0719 29.4666L49.4262 30.9242ZM57.3302 29.0101C59.0869 28.5856 60.844 28.1612 62.601 27.736L62.2481 26.2781C60.4915 26.7032 58.7348 27.1275 56.9779 27.552L57.3302 29.0101ZM67.8714 26.4572C69.628 26.0296 71.3843 25.6002 73.1401 25.1683L72.7818 23.7117C71.0274 24.1433 69.2723 24.5724 67.5166 24.9998L67.8714 26.4572ZM78.4059 23.8638C80.1605 23.4258 81.9144 22.9843 83.6671 22.5384L83.2973 21.0847C81.547 21.53 79.7953 21.9709 78.0426 22.4085L78.4059 23.8638ZM88.9225 21.1866C89.7978 20.9588 90.6729 20.7297 91.5475 20.4992L91.1652 19.0487C90.2921 19.2788 89.4186 19.5076 88.5447 19.735L88.9225 21.1866ZM91.5475 20.4992C92.3197 20.2956 93.0947 20.0935 93.8731 19.8898L93.4934 18.4387C92.7165 18.642 91.9392 18.8447 91.1652 19.0487L91.5475 20.4992ZM98.5317 18.6413C100.083 18.2083 101.634 17.7512 103.17 17.2511L102.706 15.8247C101.196 16.3163 99.6666 16.7673 98.1286 17.1965L98.5317 18.6413ZM107.742 15.5965C108.496 15.2917 109.243 14.971 109.983 14.632L109.358 13.2684C108.641 13.5972 107.914 13.909 107.18 14.2059L107.742 15.5965ZM109.983 14.632C110.698 14.3045 111.462 13.9357 112.252 13.5275L111.564 12.1947C110.796 12.5912 110.053 12.9497 109.358 13.2684L109.983 14.632ZM116.621 10.9652C118.031 10.0193 119.407 8.95768 120.619 7.78824L119.578 6.70853C118.444 7.80212 117.142 8.80943 115.785 9.71925L116.621 10.9652ZM123.801 3.6729C124.215 2.87408 124.535 2.03737 124.732 1.1652L123.268 0.834804C123.103 1.56736 122.832 2.28347 122.469 2.98214L123.801 3.6729Z" fill="url(#paint0_linear_281_332)"/>
<path d="M9.00412 44.2617L9.00008 44.2534L8.99588 44.2452L8.98982 44.2334C8.9895 44.2328 8.98918 44.2322 8.98886 44.2315C8.76608 43.7929 8.40835 43.4374 7.96833 43.2174C7.53074 42.9986 7.03479 42.9252 6.55276 43.0079C6.07214 43.0846 5.62816 43.3119 5.28491 43.6572C4.94268 44.0014 4.71832 44.4451 4.64377 44.9245L1.97707 60.1209L1.97254 60.1467L1.96937 60.1727L1.96907 60.1752C1.90879 60.5993 1.96731 61.032 2.13826 61.425C2.31121 61.8227 2.59227 62.1638 2.9495 62.4096C3.30672 62.6553 3.72575 62.7959 4.15892 62.8153C4.58205 62.8343 5.00207 62.7369 5.37342 62.534C5.39544 62.5226 5.41708 62.5105 5.43828 62.4976L18.6893 54.6139C19.1046 54.3777 19.436 54.0178 19.6372 53.5842C19.8398 53.1478 19.9003 52.6588 19.8101 52.1862L19.8064 52.1659L19.8064 52.1659L19.805 52.1584C19.7124 51.6747 19.4668 51.2335 19.1045 50.9C18.7422 50.5664 18.2822 50.3581 17.7925 50.3057L17.7789 50.3042L17.7697 50.3032L17.7605 50.3024L11.6834 49.7448L9.00412 44.2617Z" fill="#2D2D2D"/>
<path d="M9.00412 44.2617L9.00008 44.2534L8.99588 44.2452L8.98982 44.2334C8.9895 44.2328 8.98918 44.2322 8.98886 44.2315C8.76608 43.7929 8.40835 43.4374 7.96833 43.2174C7.53074 42.9986 7.03479 42.9252 6.55276 43.0079C6.07214 43.0846 5.62816 43.3119 5.28491 43.6572C4.94268 44.0014 4.71832 44.4451 4.64377 44.9245L1.97707 60.1209L1.97254 60.1467L1.96937 60.1727L1.96907 60.1752C1.90879 60.5993 1.96731 61.032 2.13826 61.425C2.31121 61.8227 2.59227 62.1638 2.9495 62.4096C3.30672 62.6553 3.72575 62.7959 4.15892 62.8153C4.58205 62.8343 5.00207 62.7369 5.37342 62.534C5.39544 62.5226 5.41708 62.5105 5.43828 62.4976L18.6893 54.6139C19.1046 54.3777 19.436 54.0178 19.6372 53.5842C19.8398 53.1478 19.9003 52.6588 19.8101 52.1862L19.8064 52.1659L19.8064 52.1659L19.805 52.1584C19.7124 51.6747 19.4668 51.2335 19.1045 50.9C18.7422 50.5664 18.2822 50.3581 17.7925 50.3057L17.7789 50.3042L17.7697 50.3032L17.7605 50.3024L11.6834 49.7448L9.00412 44.2617Z" stroke="white" stroke-width="2"/>
<path d="M9.00412 44.2617L9.00008 44.2534L8.99588 44.2452L8.98982 44.2334C8.9895 44.2328 8.98918 44.2322 8.98886 44.2315C8.76608 43.7929 8.40835 43.4374 7.96833 43.2174C7.53074 42.9986 7.03479 42.9252 6.55276 43.0079C6.07214 43.0846 5.62816 43.3119 5.28491 43.6572C4.94268 44.0014 4.71832 44.4451 4.64377 44.9245L1.97707 60.1209L1.97254 60.1467L1.96937 60.1727L1.96907 60.1752C1.90879 60.5993 1.96731 61.032 2.13826 61.425C2.31121 61.8227 2.59227 62.1638 2.9495 62.4096C3.30672 62.6553 3.72575 62.7959 4.15892 62.8153C4.58205 62.8343 5.00207 62.7369 5.37342 62.534C5.39544 62.5226 5.41708 62.5105 5.43828 62.4976L18.6893 54.6139C19.1046 54.3777 19.436 54.0178 19.6372 53.5842C19.8398 53.1478 19.9003 52.6588 19.8101 52.1862L19.8064 52.1659L19.8064 52.1659L19.805 52.1584C19.7124 51.6747 19.4668 51.2335 19.1045 50.9C18.7422 50.5664 18.2822 50.3581 17.7925 50.3057L17.7789 50.3042L17.7697 50.3032L17.7605 50.3024L11.6834 49.7448L9.00412 44.2617Z" stroke="black" stroke-opacity="0.1" stroke-width="2"/>
<path d="M122.659 1C124.018 7.01905 131.813 11.5779 136.989 13.9502C142.803 16.6149 149.147 18.1514 155.303 19.7739C169.282 23.4587 183.363 26.7803 197.41 30.1954C204.598 31.9429 212.931 35.3507 219.5 39C223.695 41.3308 225.379 42.3753 229 45.5C234.057 49.8643 233.5 52 235 58.5" stroke="url(#paint1_linear_281_332)" stroke-width="1.5" stroke-dasharray="5.17 5.17"/>
<path d="M228.999 54.3033L228.99 54.2994L228.982 54.2956L228.97 54.2902C228.969 54.2899 228.969 54.2896 228.968 54.2893C228.52 54.0868 228.018 54.0335 227.537 54.1374C227.059 54.2408 226.626 54.4941 226.302 54.8603C225.976 55.221 225.772 55.6762 225.72 56.1604C225.669 56.643 225.772 57.1294 226.014 57.5499L233.448 71.0694L233.46 71.0923L233.474 71.1145L233.475 71.1167C233.694 71.4852 234.011 71.7859 234.39 71.9854C234.774 72.1872 235.206 72.2772 235.639 72.2452C236.071 72.2133 236.486 72.0606 236.836 71.8045C237.178 71.5544 237.444 71.2155 237.607 70.8248C237.617 70.8021 237.626 70.7791 237.635 70.7558L243.032 56.3125C243.208 55.8683 243.241 55.3801 243.127 54.9161C243.011 54.4489 242.752 54.0298 242.386 53.7177L242.371 53.7042L242.371 53.7042L242.365 53.6992C241.99 53.38 241.522 53.1897 241.031 53.1565C240.539 53.1232 240.05 53.2487 239.636 53.5144L239.624 53.5218L239.616 53.5267L239.609 53.5318L234.521 56.9016L228.999 54.3033Z" fill="#2D2D2D"/>
<path d="M228.999 54.3033L228.99 54.2994L228.982 54.2956L228.97 54.2902C228.969 54.2899 228.969 54.2896 228.968 54.2893C228.52 54.0868 228.018 54.0335 227.537 54.1374C227.059 54.2408 226.626 54.4941 226.302 54.8603C225.976 55.221 225.772 55.6762 225.72 56.1604C225.669 56.643 225.772 57.1294 226.014 57.5499L233.448 71.0694L233.46 71.0923L233.474 71.1145L233.475 71.1167C233.694 71.4852 234.011 71.7859 234.39 71.9854C234.774 72.1872 235.206 72.2772 235.639 72.2452C236.071 72.2133 236.486 72.0606 236.836 71.8045C237.178 71.5544 237.444 71.2155 237.607 70.8248C237.617 70.8021 237.626 70.7791 237.635 70.7558L243.032 56.3125C243.208 55.8683 243.241 55.3801 243.127 54.9161C243.011 54.4489 242.752 54.0298 242.386 53.7177L242.371 53.7042L242.371 53.7042L242.365 53.6992C241.99 53.38 241.522 53.1897 241.031 53.1565C240.539 53.1232 240.05 53.2487 239.636 53.5144L239.624 53.5218L239.616 53.5267L239.609 53.5318L234.521 56.9016L228.999 54.3033Z" stroke="white" stroke-width="2"/>
<path d="M228.999 54.3033L228.99 54.2994L228.982 54.2956L228.97 54.2902C228.969 54.2899 228.969 54.2896 228.968 54.2893C228.52 54.0868 228.018 54.0335 227.537 54.1374C227.059 54.2408 226.626 54.4941 226.302 54.8603C225.976 55.221 225.772 55.6762 225.72 56.1604C225.669 56.643 225.772 57.1294 226.014 57.5499L233.448 71.0694L233.46 71.0923L233.474 71.1145L233.475 71.1167C233.694 71.4852 234.011 71.7859 234.39 71.9854C234.774 72.1872 235.206 72.2772 235.639 72.2452C236.071 72.2133 236.486 72.0606 236.836 71.8045C237.178 71.5544 237.444 71.2155 237.607 70.8248C237.617 70.8021 237.626 70.7791 237.635 70.7558L243.032 56.3125C243.208 55.8683 243.241 55.3801 243.127 54.9161C243.011 54.4489 242.752 54.0298 242.386 53.7177L242.371 53.7042L242.371 53.7042L242.365 53.6992C241.99 53.38 241.522 53.1897 241.031 53.1565C240.539 53.1232 240.05 53.2487 239.636 53.5144L239.624 53.5218L239.616 53.5267L239.609 53.5318L234.521 56.9016L228.999 54.3033Z" stroke="black" stroke-opacity="0.1" stroke-width="2"/>
<defs>
<linearGradient id="paint0_linear_281_332" x1="4" y1="31" x2="124" y2="31" gradientUnits="userSpaceOnUse">
<stop stop-color="#FFDF00"/>
<stop offset="1" stop-color="#FDCC0D"/>
</linearGradient>
<linearGradient id="paint1_linear_281_332" x1="235" y1="29.75" x2="122.659" y2="29.75" gradientUnits="userSpaceOnUse">
<stop stop-color="#FFDF00"/>
<stop offset="1" stop-color="#FDCC0D"/>
</linearGradient>
</defs>
</svg>
