<svg width="182" height="300" viewBox="0 0 182 300" fill="none" xmlns="http://www.w3.org/2000/svg">
<path d="M1 152.312L0.250168 152.327C0.249939 152.317 0.249939 152.306 0.250183 152.295L1 152.312ZM2.16904 208.051L1.4192 208.067L2.16904 208.051ZM93.9405 294.124L93.9082 293.375L93.9405 294.124ZM181.707 298.75C181.845 299.141 181.64 299.569 181.25 299.707C180.859 299.845 180.431 299.64 180.293 299.25L181.707 298.75ZM168.994 290.888L169.027 291.638L168.994 290.888ZM2.15442 100.056L1.4046 100.04L2.15442 100.056ZM179.553 297.588C179.355 297.224 179.49 296.769 179.854 296.571C180.218 296.373 180.673 296.507 180.871 296.871L179.553 297.588ZM178.363 293.626C178.665 293.909 178.68 294.384 178.397 294.686C178.113 294.988 177.639 295.003 177.337 294.72L178.363 293.626ZM174.332 292.69C173.957 292.515 173.794 292.069 173.968 291.694C174.143 291.318 174.589 291.155 174.965 291.33L174.332 292.69ZM171.018 290.214C171.429 290.261 171.724 290.634 171.676 291.045C171.628 291.457 171.256 291.751 170.844 291.703L171.018 290.214ZM166.346 291.753C165.932 291.771 165.583 291.45 165.565 291.036C165.547 290.622 165.868 290.272 166.282 290.255L166.346 291.753ZM160.921 290.486C161.335 290.468 161.684 290.789 161.702 291.203C161.72 291.617 161.399 291.966 160.985 291.984L160.921 290.486ZM155.624 292.215C155.21 292.233 154.861 291.912 154.843 291.498C154.825 291.085 155.146 290.735 155.56 290.717L155.624 292.215ZM150.199 290.948C150.613 290.93 150.962 291.251 150.98 291.665C150.998 292.079 150.677 292.429 150.263 292.447L150.199 290.948ZM144.902 292.678C144.488 292.696 144.139 292.375 144.121 291.961C144.103 291.547 144.424 291.197 144.838 291.179L144.902 292.678ZM139.477 291.41C139.891 291.392 140.24 291.714 140.258 292.127C140.276 292.541 139.955 292.891 139.541 292.909L139.477 291.41ZM134.18 293.14C133.766 293.158 133.417 292.837 133.399 292.423C133.381 292.009 133.702 291.659 134.116 291.641L134.18 293.14ZM128.755 291.873C129.169 291.855 129.518 292.176 129.536 292.59C129.554 293.003 129.233 293.353 128.819 293.371L128.755 291.873ZM123.458 293.602C123.044 293.62 122.695 293.299 122.677 292.885C122.659 292.472 122.98 292.122 123.394 292.104L123.458 293.602ZM118.033 292.335C118.447 292.317 118.796 292.638 118.814 293.052C118.832 293.466 118.511 293.816 118.097 293.834L118.033 292.335ZM112.736 294.065C112.322 294.083 111.973 293.762 111.955 293.348C111.937 292.934 112.258 292.584 112.672 292.566L112.736 294.065ZM107.311 292.797C107.725 292.779 108.074 293.1 108.092 293.514C108.11 293.928 107.789 294.278 107.375 294.296L107.311 292.797ZM102.014 294.527C101.601 294.545 101.251 294.224 101.233 293.81C101.215 293.396 101.536 293.046 101.95 293.028L102.014 294.527ZM96.5887 293.26C97.0026 293.242 97.3525 293.563 97.3703 293.977C97.3882 294.39 97.0672 294.74 96.6533 294.758L96.5887 293.26ZM91.4429 294.947C91.0287 294.954 90.6879 294.623 90.6816 294.209C90.6753 293.795 91.006 293.454 91.4202 293.448L91.4429 294.947ZM86.4575 293.383C86.8714 293.4 87.1931 293.75 87.176 294.164C87.159 294.577 86.8097 294.899 86.3958 294.882L86.4575 293.383ZM81.3606 294.532C80.9483 294.491 80.647 294.124 80.6874 293.712C80.7279 293.3 81.0949 292.999 81.5071 293.039L81.3606 294.532ZM76.5848 292.414C76.9941 292.478 77.274 292.861 77.2101 293.27C77.1462 293.68 76.7627 293.96 76.3534 293.896L76.5848 292.414ZM71.3908 292.975C70.9859 292.887 70.7283 292.488 70.8156 292.083C70.9028 291.679 71.3018 291.421 71.7067 291.508L71.3908 292.975ZM66.8853 290.324C67.2846 290.434 67.5188 290.847 67.4085 291.247C67.2982 291.646 66.8851 291.88 66.4859 291.77L66.8853 290.324ZM61.6588 290.286C61.2665 290.153 61.0563 289.727 61.1893 289.335C61.3223 288.943 61.7482 288.732 62.1404 288.865L61.6588 290.286ZM57.4874 287.137C57.8715 287.293 58.0569 287.73 57.9017 288.114C57.7464 288.498 57.3092 288.683 56.9252 288.528L57.4874 287.137ZM52.3004 286.503C51.9259 286.326 51.7658 285.879 51.9427 285.504C52.1196 285.13 52.5667 284.969 52.9412 285.146L52.3004 286.503ZM48.5161 282.899C48.8799 283.097 49.0143 283.553 48.8163 283.917C48.6184 284.28 48.1629 284.415 47.7991 284.217L48.5161 282.899ZM43.4352 281.679C43.0832 281.46 42.9749 280.998 43.1932 280.646C43.4116 280.294 43.8739 280.186 44.2259 280.404L43.4352 281.679ZM40.0838 277.669C40.4229 277.907 40.5048 278.375 40.2669 278.714C40.0289 279.053 39.5612 279.135 39.2221 278.897L40.0838 277.669ZM35.1732 275.88C34.8481 275.624 34.7928 275.152 35.0495 274.827C35.3063 274.502 35.7779 274.447 36.103 274.703L35.1732 275.88ZM32.2963 271.518C32.6063 271.792 32.6349 272.266 32.3602 272.576C32.0855 272.886 31.6115 272.915 31.3015 272.64L32.2963 271.518ZM27.6192 269.187C27.3252 268.895 27.3234 268.42 27.6152 268.126C27.907 267.832 28.3818 267.83 28.6758 268.122L27.6192 269.187ZM25.2529 264.527C25.5299 264.835 25.5049 265.309 25.1969 265.586C24.889 265.863 24.4148 265.838 24.1378 265.53L25.2529 264.527ZM20.8685 261.683C20.6093 261.36 20.6612 260.888 20.9843 260.628C21.3074 260.369 21.7795 260.421 22.0386 260.744L20.8685 261.683ZM19.044 256.786C19.2844 257.123 19.2059 257.591 18.8686 257.832C18.5313 258.072 18.0629 257.994 17.8225 257.656L19.044 256.786ZM15.0102 253.464C14.7893 253.113 14.8943 252.65 15.2447 252.43C15.5952 252.209 16.0583 252.314 16.2791 252.664L15.0102 253.464ZM13.7533 248.392C13.9539 248.754 13.8227 249.211 13.4602 249.411C13.0978 249.612 12.6414 249.481 12.4409 249.118L13.7533 248.392ZM10.1235 244.632C9.94398 244.259 10.1011 243.811 10.4744 243.632C10.8477 243.452 11.2958 243.609 11.4753 243.982L10.1235 244.632ZM9.45306 239.45C9.61092 239.833 9.42845 240.271 9.04549 240.429C8.66254 240.587 8.22412 240.404 8.06627 240.021L9.45306 239.45ZM6.27638 235.299C6.14075 234.908 6.34807 234.48 6.73944 234.345C7.13081 234.209 7.55804 234.416 7.69368 234.808L6.27638 235.299ZM6.20322 230.072C6.31619 230.471 6.0847 230.885 5.6862 230.998C5.28769 231.111 4.87305 230.88 4.76009 230.481L6.20322 230.072ZM3.52315 225.588C3.43318 225.183 3.688 224.783 4.09233 224.693C4.49664 224.603 4.89735 224.858 4.98734 225.262L3.52315 225.588ZM4.04823 220.39C4.11501 220.799 3.83774 221.184 3.42894 221.251C3.02014 221.318 2.63461 221.04 2.56784 220.632L4.04823 220.39ZM1.89597 215.629C1.85248 215.217 2.15115 214.848 2.56308 214.805C2.97501 214.761 3.34418 215.06 3.38766 215.472L1.89597 215.629ZM3.00583 210.523C3.02609 210.937 2.70714 211.289 2.29341 211.309C1.8797 211.329 1.52789 211.01 1.50763 210.597L3.00583 210.523ZM1.36075 205.28C1.35207 204.866 1.68074 204.523 2.09486 204.515C2.50899 204.506 2.85175 204.835 2.86043 205.249L1.36075 205.28ZM2.74352 199.675C2.75221 200.089 2.42354 200.432 2.00941 200.44C1.59529 200.449 1.25253 200.12 1.24385 199.706L2.74352 199.675ZM1.12695 194.132C1.11826 193.718 1.44693 193.375 1.86105 193.367C2.27518 193.358 2.61794 193.687 2.62662 194.101L1.12695 194.132ZM2.50972 188.527C2.5184 188.941 2.18973 189.284 1.7756 189.292C1.36148 189.301 1.01872 188.972 1.01004 188.558L2.50972 188.527ZM0.893143 182.984C0.884445 182.57 1.21312 182.227 1.62724 182.219C2.04137 182.21 2.38412 182.539 2.39281 182.953L0.893143 182.984ZM2.27591 177.379C2.28459 177.793 1.95592 178.136 1.54179 178.144C1.12767 178.153 0.784912 177.824 0.77623 177.41L2.27591 177.379ZM0.659332 171.836C0.65065 171.422 0.979309 171.079 1.39343 171.071C1.80756 171.062 2.15031 171.391 2.159 171.805L0.659332 171.836ZM2.0421 166.231C2.05078 166.645 1.72211 166.988 1.30798 166.996C0.89386 167.005 0.551117 166.676 0.542419 166.262L2.0421 166.231ZM0.425522 160.688C0.41684 160.274 0.745514 159.931 1.15964 159.923C1.57375 159.914 1.9165 160.243 1.92519 160.657L0.425522 160.688ZM1.80829 155.083C1.81697 155.497 1.4883 155.84 1.07417 155.848C0.660049 155.857 0.317307 155.529 0.308624 155.114L1.80829 155.083ZM0.307907 149.682C0.317047 149.268 0.660172 148.94 1.07428 148.949C1.4884 148.958 1.81668 149.301 1.80754 149.715L0.307907 149.682ZM1.92297 144.49C1.91383 144.904 1.57071 145.232 1.1566 145.223C0.742477 145.214 0.4142 144.871 0.42334 144.457L1.92297 144.49ZM0.538788 139.231C0.547928 138.817 0.891052 138.489 1.30518 138.498C1.71928 138.507 2.04756 138.85 2.03842 139.264L0.538788 139.231ZM2.15387 134.039C2.14471 134.453 1.80159 134.781 1.38748 134.772C0.973373 134.763 0.645081 134.42 0.654221 134.006L2.15387 134.039ZM0.769669 128.78C0.778824 128.366 1.12193 128.038 1.53606 128.047C1.95016 128.056 2.27846 128.399 2.2693 128.813L0.769669 128.78ZM2.38475 123.588C2.3756 124.002 2.03247 124.33 1.61836 124.321C1.20425 124.312 0.875961 123.969 0.885117 123.555L2.38475 123.588ZM1.00055 118.329C1.0097 117.915 1.35283 117.587 1.76694 117.596C2.18105 117.605 2.50934 117.948 2.50018 118.362L1.00055 118.329ZM2.61563 113.137C2.60648 113.551 2.26335 113.879 1.84924 113.87C1.43513 113.861 1.10684 113.518 1.116 113.104L2.61563 113.137ZM1.23143 107.878C1.24059 107.464 1.58371 107.136 1.99782 107.145C2.41193 107.154 2.74022 107.497 2.73106 107.911L1.23143 107.878ZM2.84651 102.686C2.83736 103.1 2.49425 103.428 2.08012 103.419C1.66602 103.41 1.33772 103.067 1.34688 102.653L2.84651 102.686ZM1.50191 97.3926C1.52319 96.9789 1.87579 96.6609 2.28946 96.6822C2.70312 96.7034 3.02121 97.056 2.99992 97.4697L1.50191 97.3926ZM3.41962 92.2913C3.37398 92.703 3.00323 92.9997 2.59155 92.9541C2.17986 92.9084 1.88312 92.5377 1.92876 92.126L3.41962 92.2913ZM2.66653 86.8947C2.73656 86.4864 3.12427 86.2122 3.53253 86.2822C3.94078 86.3523 4.21497 86.74 4.14494 87.1482L2.66653 86.8947ZM5.17645 82.0532C5.08215 82.4565 4.67873 82.707 4.27539 82.6127C3.87206 82.5184 3.62154 82.115 3.71584 81.7117L5.17645 82.0532ZM5.07344 76.6014C5.19176 76.2044 5.60947 75.9786 6.00642 76.0969C6.40338 76.2152 6.62927 76.6329 6.51096 77.0298L5.07344 76.6014ZM8.14388 72.0969C8.00197 72.4861 7.57146 72.6865 7.18231 72.5446C6.79317 72.4027 6.59274 71.9722 6.73465 71.583L8.14388 72.0969ZM8.69339 66.6742C8.85837 66.2942 9.30011 66.12 9.68005 66.285C10.06 66.4499 10.2343 66.8917 10.0693 67.2716L8.69339 66.6742ZM12.2806 62.5693C12.0932 62.9387 11.6419 63.0863 11.2725 62.8988C10.9031 62.7114 10.7556 62.2601 10.943 61.8907L12.2806 62.5693ZM13.4749 57.2493C13.684 56.8917 14.1434 56.7714 14.5009 56.9806C14.8585 57.1897 14.9788 57.6491 14.7697 58.0066L13.4749 57.2493ZM17.526 53.601C17.2959 53.9455 16.8302 54.0382 16.4857 53.8082C16.1413 53.5781 16.0485 53.1124 16.2786 52.7679L17.526 53.601ZM19.3435 48.4617C19.5936 48.1315 20.064 48.0666 20.3942 48.3167C20.7244 48.5668 20.7893 49.0372 20.5392 49.3674L19.3435 48.4617ZM23.7986 45.3196C23.5294 45.6344 23.0559 45.6713 22.7411 45.4021C22.4264 45.1328 22.3895 44.6594 22.6587 44.3446L23.7986 45.3196ZM26.2121 40.4311C26.4995 40.1328 26.9743 40.124 27.2726 40.4114C27.5709 40.6988 27.5797 41.1736 27.2923 41.4719L26.2121 40.4311ZM31.0075 37.8378C30.703 38.1186 30.2285 38.0993 29.9477 37.7947C29.667 37.4902 29.6863 37.0157 29.9908 36.7349L31.0075 37.8378ZM33.9819 33.2688C34.3025 33.0066 34.775 33.054 35.0372 33.3746C35.2995 33.6952 35.2521 34.1678 34.9315 34.43L33.9819 33.2688ZM39.0502 31.2607C38.7146 31.5035 38.2457 31.4282 38.003 31.0926C37.7602 30.7569 37.8355 30.2881 38.1712 30.0453L39.0502 31.2607ZM42.5441 27.0763C42.8935 26.8539 43.3571 26.9569 43.5795 27.3063C43.8019 27.6558 43.6989 28.1194 43.3494 28.3418L42.5441 27.0763ZM47.8148 25.6835C47.4527 25.8846 46.9961 25.7542 46.7949 25.3921C46.5938 25.0301 46.7242 24.5735 47.0863 24.3723L47.8148 25.6835ZM51.7824 21.9435C52.1559 21.7643 52.6039 21.9217 52.7831 22.2952C52.9623 22.6686 52.8048 23.1166 52.4314 23.2958L51.7824 21.9435ZM57.1814 21.1888C56.7979 21.3454 56.3601 21.1614 56.2035 20.7779C56.047 20.3944 56.231 19.9566 56.6145 19.8001L57.1814 21.1888ZM61.5654 17.9502C61.9576 17.817 62.3835 18.0268 62.5168 18.419C62.6501 18.8112 62.4402 19.2372 62.048 19.3705L61.5654 17.9502ZM67.0158 17.8469C66.6163 17.9564 66.2037 17.7214 66.0942 17.3219C65.9847 16.9224 66.2197 16.5098 66.6192 16.4003L67.0158 17.8469ZM71.7582 15.1559C72.1636 15.0705 72.5613 15.3299 72.6467 15.7352C72.7321 16.1405 72.4727 16.5383 72.0674 16.6237L71.7582 15.1559ZM77.184 15.705C76.7743 15.7659 76.3927 15.4833 76.3317 15.0736C76.2707 14.6639 76.5534 14.2823 76.9631 14.2213L77.184 15.705ZM82.2095 13.5992C82.6221 13.5627 82.9862 13.8676 83.0227 14.2802C83.0593 14.6928 82.7544 15.0569 82.3418 15.0934L82.2095 13.5992ZM87.5282 14.7882C87.1142 14.8003 86.7687 14.4745 86.7565 14.0605C86.7444 13.6465 87.0702 13.301 87.4842 13.2888L87.5282 14.7882ZM92.6293 13.25C93.0435 13.25 93.3793 13.5858 93.3793 14C93.3793 14.4142 93.0435 14.75 92.6293 14.75V13.25ZM97.6219 14.75C97.2077 14.75 96.8719 14.4142 96.8719 14C96.8719 13.5858 97.2077 13.25 97.6219 13.25V14.75ZM102.614 13.25C103.029 13.25 103.364 13.5858 103.364 14C103.364 14.4142 103.029 14.75 102.614 14.75V13.25ZM107.607 14.75C107.193 14.75 106.857 14.4142 106.857 14C106.857 13.5858 107.193 13.25 107.607 13.25V14.75ZM112.6 13.25C113.014 13.25 113.35 13.5858 113.35 14C113.35 14.4142 113.014 14.75 112.6 14.75V13.25ZM117.592 14.75C117.178 14.75 116.842 14.4142 116.842 14C116.842 13.5858 117.178 13.25 117.592 13.25V14.75ZM122.585 13.25C122.999 13.25 123.335 13.5858 123.335 14C123.335 14.4142 122.999 14.75 122.585 14.75V13.25ZM127.578 14.75C127.163 14.75 126.828 14.4142 126.828 14C126.828 13.5858 127.163 13.25 127.578 13.25V14.75ZM132.57 13.25C132.984 13.25 133.32 13.5858 133.32 14C133.32 14.4142 132.984 14.75 132.57 14.75V13.25ZM137.563 14.75C137.149 14.75 136.813 14.4142 136.813 14C136.813 13.5858 137.149 13.25 137.563 13.25V14.75ZM142.555 13.25C142.97 13.25 143.305 13.5858 143.305 14C143.305 14.4142 142.97 14.75 142.555 14.75V13.25ZM147.548 14.75C147.134 14.75 146.798 14.4142 146.798 14C146.798 13.5858 147.134 13.25 147.548 13.25V14.75ZM152.541 13.25C152.955 13.25 153.291 13.5858 153.291 14C153.291 14.4142 152.955 14.75 152.541 14.75V13.25ZM157.533 14.75C157.119 14.75 156.783 14.4142 156.783 14C156.783 13.5858 157.119 13.25 157.533 13.25V14.75ZM162.526 13.25C162.94 13.25 163.276 13.5858 163.276 14C163.276 14.4142 162.94 14.75 162.526 14.75V13.25ZM167.518 14.75C167.104 14.75 166.768 14.4142 166.768 14C166.768 13.5858 167.104 13.25 167.518 13.25V14.75ZM172.511 13.25C172.925 13.25 173.261 13.5858 173.261 14C173.261 14.4142 172.925 14.75 172.511 14.75V13.25ZM177.504 14.75C177.089 14.75 176.754 14.4142 176.754 14C176.754 13.5858 177.089 13.25 177.504 13.25V14.75ZM180.293 299.25C180.088 298.67 179.84 298.115 179.553 297.588L180.871 296.871C181.196 297.467 181.476 298.095 181.707 298.75L180.293 299.25ZM177.337 294.72C176.45 293.888 175.435 293.203 174.332 292.69L174.965 291.33C176.212 291.91 177.359 292.685 178.363 293.626L177.337 294.72ZM170.844 291.703C170.248 291.634 169.641 291.611 169.027 291.638L168.962 290.139C169.656 290.109 170.343 290.135 171.018 290.214L170.844 291.703ZM169.027 291.638L166.346 291.753L166.282 290.255L168.962 290.139L169.027 291.638ZM160.985 291.984L155.624 292.215L155.56 290.717L160.921 290.486L160.985 291.984ZM150.263 292.447L144.902 292.678L144.838 291.179L150.199 290.948L150.263 292.447ZM139.541 292.909L134.18 293.14L134.116 291.641L139.477 291.41L139.541 292.909ZM128.819 293.371L123.458 293.602L123.394 292.104L128.755 291.873L128.819 293.371ZM118.097 293.834L112.736 294.065L112.672 292.566L118.033 292.335L118.097 293.834ZM107.375 294.296L102.014 294.527L101.95 293.028L107.311 292.797L107.375 294.296ZM96.6533 294.758L93.9728 294.874L93.9082 293.375L96.5887 293.26L96.6533 294.758ZM93.9728 294.874C93.1272 294.91 92.2838 294.935 91.4429 294.947L91.4202 293.448C92.2471 293.435 93.0765 293.411 93.9082 293.375L93.9728 294.874ZM86.3958 294.882C84.7055 294.812 83.0266 294.695 81.3606 294.532L81.5071 293.039C83.1449 293.2 84.7955 293.315 86.4575 293.383L86.3958 294.882ZM76.3534 293.896C74.6839 293.635 73.0292 293.328 71.3908 292.975L71.7067 291.508C73.3172 291.855 74.9437 292.157 76.5848 292.414L76.3534 293.896ZM66.4859 291.77C64.8581 291.32 63.2485 290.825 61.6588 290.286L62.1404 288.865C63.7032 289.395 65.2853 289.882 66.8853 290.324L66.4859 291.77ZM56.9252 288.528C55.3614 287.896 53.8193 287.22 52.3004 286.503L52.9412 285.146C54.4343 285.852 55.9502 286.516 57.4874 287.137L56.9252 288.528ZM47.7991 284.217C46.3188 283.411 44.8637 282.565 43.4352 281.679L44.2259 280.404C45.6303 281.275 47.0609 282.107 48.5161 282.899L47.7991 284.217ZM39.2221 278.897C37.8434 277.929 36.4933 276.923 35.1732 275.88L36.103 274.703C37.4009 275.729 38.7283 276.718 40.0838 277.669L39.2221 278.897ZM31.3015 272.64C30.0418 271.524 28.8138 270.372 27.6192 269.187L28.6758 268.122C29.8504 269.288 31.0578 270.42 32.2963 271.518L31.3015 272.64ZM24.1378 265.53C23.0126 264.28 21.9223 262.997 20.8685 261.683L22.0386 260.744C23.0747 262.036 24.1467 263.297 25.2529 264.527L24.1378 265.53ZM17.8225 257.656C16.8468 256.288 15.9088 254.89 15.0102 253.464L16.2791 252.664C17.1626 254.066 18.0847 255.44 19.044 256.786L17.8225 257.656ZM12.4409 249.118C11.6275 247.648 10.8546 246.153 10.1235 244.632L11.4753 243.982C12.1939 245.477 12.9538 246.947 13.7533 248.392L12.4409 249.118ZM8.06627 240.021C7.42651 238.469 6.82939 236.895 6.27638 235.299L7.69368 234.808C8.23726 236.376 8.82422 237.924 9.45306 239.45L8.06627 240.021ZM4.76009 230.481C4.30299 228.869 3.8902 227.237 3.52315 225.588L4.98734 225.262C5.34814 226.883 5.75391 228.487 6.20322 230.072L4.76009 230.481ZM2.56784 220.632C2.29799 218.979 2.07358 217.312 1.89597 215.629L3.38766 215.472C3.5623 217.126 3.78294 218.766 4.04823 220.39L2.56784 220.632ZM1.50763 210.597C1.46648 209.757 1.43695 208.913 1.4192 208.067L2.91888 208.036C2.93634 208.868 2.96536 209.697 3.00583 210.523L1.50763 210.597ZM1.4192 208.067L1.36075 205.28L2.86043 205.249L2.91888 208.036L1.4192 208.067ZM1.24385 199.706L1.12695 194.132L2.62662 194.101L2.74352 199.675L1.24385 199.706ZM1.01004 188.558L0.893143 182.984L2.39281 182.953L2.50972 188.527L1.01004 188.558ZM0.77623 177.41L0.659332 171.836L2.159 171.805L2.27591 177.379L0.77623 177.41ZM0.542419 166.262L0.425522 160.688L1.92519 160.657L2.0421 166.231L0.542419 166.262ZM0.308624 155.114L0.250168 152.327L1.74983 152.296L1.80829 155.083L0.308624 155.114ZM0.250183 152.295L0.307907 149.682L1.80754 149.715L1.74982 152.328L0.250183 152.295ZM0.42334 144.457L0.538788 139.231L2.03842 139.264L1.92297 144.49L0.42334 144.457ZM0.654221 134.006L0.769669 128.78L2.2693 128.813L2.15387 134.039L0.654221 134.006ZM0.885117 123.555L1.00055 118.329L2.50018 118.362L2.38475 123.588L0.885117 123.555ZM1.116 113.104L1.23143 107.878L2.73106 107.911L2.61563 113.137L1.116 113.104ZM1.34688 102.653L1.4046 100.04L2.90424 100.073L2.84651 102.686L1.34688 102.653ZM1.4046 100.04C1.42416 99.1541 1.45667 98.2717 1.50191 97.3926L2.99992 97.4697C2.95543 98.3341 2.92348 99.2019 2.90424 100.073L1.4046 100.04ZM1.92876 92.126C2.12387 90.366 2.37032 88.6217 2.66653 86.8947L4.14494 87.1482C3.85374 88.846 3.61147 90.5609 3.41962 92.2913L1.92876 92.126ZM3.71584 81.7117C4.1188 79.9882 4.57188 78.2842 5.07344 76.6014L6.51096 77.0298C6.01794 78.684 5.57257 80.359 5.17645 82.0532L3.71584 81.7117ZM6.73465 71.583C7.34006 69.9228 7.99355 68.286 8.69339 66.6742L10.0693 67.2716C9.38133 68.856 8.73897 70.465 8.14388 72.0969L6.73465 71.583ZM10.943 61.8907C11.742 60.3157 12.5866 58.768 13.4749 57.2493L14.7697 58.0066C13.8964 59.4997 13.0661 61.0211 12.2806 62.5693L10.943 61.8907ZM16.2786 52.7679C17.2583 51.3009 18.2805 49.8649 19.3435 48.4617L20.5392 49.3674C19.4941 50.747 18.4892 52.1588 17.526 53.601L16.2786 52.7679ZM22.6587 44.3446C23.8046 43.0049 24.9897 41.6998 26.2121 40.4311L27.2923 41.4719C26.0904 42.7192 24.9253 44.0024 23.7986 45.3196L22.6587 44.3446ZM29.9908 36.7349C31.2862 35.5408 32.6172 34.3849 33.9819 33.2688L34.9315 34.43C33.5897 35.5273 32.2811 36.6638 31.0075 37.8378L29.9908 36.7349ZM38.1712 30.0453C39.5976 29.0136 41.0558 28.0234 42.5441 27.0763L43.3494 28.3418C41.8863 29.2729 40.4526 30.2464 39.0502 31.2607L38.1712 30.0453ZM47.0863 24.3723C48.6243 23.5177 50.1902 22.7075 51.7824 21.9435L52.4314 23.2958C50.8662 24.0469 49.3268 24.8433 47.8148 25.6835L47.0863 24.3723ZM56.6145 19.8001C58.2413 19.136 59.8922 18.5188 61.5654 17.9502L62.048 19.3705C60.4033 19.9294 58.7805 20.5361 57.1814 21.1888L56.6145 19.8001ZM66.6192 16.4003C68.3127 15.936 70.0263 15.5207 71.7582 15.1559L72.0674 16.6237C70.3649 16.9823 68.6805 17.3905 67.0158 17.8469L66.6192 16.4003ZM76.9631 14.2213C78.6963 13.9633 80.4456 13.7554 82.2095 13.5992L82.3418 15.0934C80.6076 15.247 78.8878 15.4513 77.184 15.705L76.9631 14.2213ZM87.4842 13.2888C88.3641 13.263 89.247 13.25 90.133 13.25V14.75C89.2617 14.75 88.3934 14.7628 87.5282 14.7882L87.4842 13.2888ZM90.133 13.25H92.6293V14.75H90.133V13.25ZM97.6219 13.25H102.614V14.75H97.6219V13.25ZM107.607 13.25H112.6V14.75H107.607V13.25ZM117.592 13.25H122.585V14.75H117.592V13.25ZM127.578 13.25H132.57V14.75H127.578V13.25ZM137.563 13.25H142.555V14.75H137.563V13.25ZM147.548 13.25H152.541V14.75H147.548V13.25ZM157.533 13.25H162.526V14.75H157.533V13.25ZM167.518 13.25H172.511V14.75H167.518V13.25ZM177.504 13.25H180V14.75H177.504V13.25Z" fill="url(#paint0_linear_22_4204)"/>
<path d="M161.686 21.5114L161.691 21.5058C162.03 21.1485 162.245 20.6917 162.305 20.2029C162.365 19.714 162.266 19.2189 162.023 18.7906L162.016 18.7787L162.011 18.7706L162.007 18.7626L158.915 13.5009L161.807 8.12666L161.811 8.11853L161.815 8.11033L161.822 8.09852C161.822 8.09789 161.822 8.09725 161.823 8.09662C162.049 7.65986 162.129 7.16195 162.051 6.6762C161.974 6.19311 161.744 5.74747 161.396 5.40413C161.053 5.05844 160.609 4.83036 160.129 4.7529C159.65 4.67568 159.158 4.75217 158.725 4.97119L144.826 11.6677L144.802 11.6791L144.779 11.6916L144.777 11.6928C144.397 11.8913 144.08 12.1911 143.861 12.5592C143.638 12.9316 143.525 13.3589 143.534 13.7924C143.543 14.2259 143.673 14.6483 143.91 15.0115C144.141 15.3663 144.465 15.6506 144.846 15.834C144.869 15.8452 144.891 15.8557 144.914 15.8654L159.046 22.0317C159.48 22.2312 159.966 22.2905 160.435 22.2011C160.908 22.1112 161.341 21.8751 161.672 21.5263L161.686 21.5114Z" fill="#2D2D2D"/>
<path d="M161.686 21.5114L161.691 21.5058C162.03 21.1485 162.245 20.6917 162.305 20.2029C162.365 19.714 162.266 19.2189 162.023 18.7906L162.016 18.7787L162.011 18.7706L162.007 18.7626L158.915 13.5009L161.807 8.12666L161.811 8.11853L161.815 8.11033L161.822 8.09852C161.822 8.09789 161.822 8.09725 161.823 8.09662C162.049 7.65986 162.129 7.16195 162.051 6.6762C161.974 6.19311 161.744 5.74747 161.396 5.40413C161.053 5.05844 160.609 4.83036 160.129 4.7529C159.65 4.67568 159.158 4.75217 158.725 4.97119L144.826 11.6677L144.802 11.6791L144.779 11.6916L144.777 11.6928C144.397 11.8913 144.08 12.1911 143.861 12.5592C143.638 12.9316 143.525 13.3589 143.534 13.7924C143.543 14.2259 143.673 14.6483 143.91 15.0115C144.141 15.3663 144.465 15.6506 144.846 15.834C144.869 15.8452 144.891 15.8557 144.914 15.8654L159.046 22.0317C159.48 22.2312 159.966 22.2905 160.435 22.2011C160.908 22.1112 161.341 21.8751 161.672 21.5263L161.686 21.5114Z" stroke="white" stroke-width="2"/>
<path d="M161.686 21.5114L161.691 21.5058C162.03 21.1485 162.245 20.6917 162.305 20.2029C162.365 19.714 162.266 19.2189 162.023 18.7906L162.016 18.7787L162.011 18.7706L162.007 18.7626L158.915 13.5009L161.807 8.12666L161.811 8.11853L161.815 8.11033L161.822 8.09852C161.822 8.09789 161.822 8.09725 161.823 8.09662C162.049 7.65986 162.129 7.16195 162.051 6.6762C161.974 6.19311 161.744 5.74747 161.396 5.40413C161.053 5.05844 160.609 4.83036 160.129 4.7529C159.65 4.67568 159.158 4.75217 158.725 4.97119L144.826 11.6677L144.802 11.6791L144.779 11.6916L144.777 11.6928C144.397 11.8913 144.08 12.1911 143.861 12.5592C143.638 12.9316 143.525 13.3589 143.534 13.7924C143.543 14.2259 143.673 14.6483 143.91 15.0115C144.141 15.3663 144.465 15.6506 144.846 15.834C144.869 15.8452 144.891 15.8557 144.914 15.8654L159.046 22.0317C159.48 22.2312 159.966 22.2905 160.435 22.2011C160.908 22.1112 161.341 21.8751 161.672 21.5263L161.686 21.5114Z" stroke="black" stroke-opacity="0.1" stroke-width="2"/>
<defs>
<linearGradient id="paint0_linear_22_4204" x1="181" y1="156.5" x2="1" y2="156.5" gradientUnits="userSpaceOnUse">
<stop stop-color="#FFDF00"/>
<stop offset="1" stop-color="#FDCC0D"/>
</linearGradient>
</defs>
</svg>
