<svg width="28" height="26" viewBox="0 0 28 26" fill="none" xmlns="http://www.w3.org/2000/svg">
<path d="M28 13L0.999999 13" stroke="url(#paint0_linear_22_4216)" stroke-width="1.5" stroke-dasharray="5.17 5.17"/>
<path d="M19.6022 20.4863L19.6072 20.4805C19.9335 20.1117 20.1327 19.6477 20.1753 19.1571C20.218 18.6665 20.1019 18.1751 19.8441 17.7555L19.837 17.7438L19.8321 17.7359L19.8272 17.7281L16.5552 12.5767L19.2584 7.10542L19.2625 7.09715L19.2664 7.08881L19.2721 7.0768C19.2724 7.07615 19.2727 7.07551 19.273 7.07486C19.4841 6.63052 19.5469 6.13013 19.4522 5.64737C19.358 5.16725 19.113 4.72986 18.753 4.3988C18.3987 4.06521 17.9474 3.85265 17.4644 3.79192C16.9828 3.73136 16.4945 3.82485 16.0694 4.05876L2.41051 11.2334L2.38733 11.2456L2.36482 11.259L2.36267 11.2602C1.99007 11.4717 1.68332 11.7824 1.47664 12.1579C1.26756 12.5378 1.16928 12.9687 1.193 13.4017C1.21671 13.8346 1.36147 14.2522 1.61079 14.607C1.85433 14.9535 2.1881 15.2265 2.57563 15.3965C2.5981 15.4069 2.62092 15.4167 2.64406 15.4256L16.9817 21.0978C17.4224 21.2822 17.9099 21.3246 18.376 21.219C18.8453 21.1127 19.2693 20.8618 19.5883 20.5016L19.6022 20.4863Z" fill="#2D2D2D"/>
<path d="M19.6022 20.4863L19.6072 20.4805C19.9335 20.1117 20.1327 19.6477 20.1753 19.1571C20.218 18.6665 20.1019 18.1751 19.8441 17.7555L19.837 17.7438L19.8321 17.7359L19.8272 17.7281L16.5552 12.5767L19.2584 7.10542L19.2625 7.09715L19.2664 7.08881L19.2721 7.0768C19.2724 7.07615 19.2727 7.07551 19.273 7.07486C19.4841 6.63052 19.5469 6.13013 19.4522 5.64737C19.358 5.16725 19.113 4.72986 18.753 4.3988C18.3987 4.06521 17.9474 3.85265 17.4644 3.79192C16.9828 3.73136 16.4945 3.82485 16.0694 4.05876L2.41051 11.2334L2.38733 11.2456L2.36482 11.259L2.36267 11.2602C1.99007 11.4717 1.68332 11.7824 1.47664 12.1579C1.26756 12.5378 1.16928 12.9687 1.193 13.4017C1.21671 13.8346 1.36147 14.2522 1.61079 14.607C1.85433 14.9535 2.1881 15.2265 2.57563 15.3965C2.5981 15.4069 2.62092 15.4167 2.64406 15.4256L16.9817 21.0978C17.4224 21.2822 17.9099 21.3246 18.376 21.219C18.8453 21.1127 19.2693 20.8618 19.5883 20.5016L19.6022 20.4863Z" stroke="white" stroke-width="2"/>
<path d="M19.6022 20.4863L19.6072 20.4805C19.9335 20.1117 20.1327 19.6477 20.1753 19.1571C20.218 18.6665 20.1019 18.1751 19.8441 17.7555L19.837 17.7438L19.8321 17.7359L19.8272 17.7281L16.5552 12.5767L19.2584 7.10542L19.2625 7.09715L19.2664 7.08881L19.2721 7.0768C19.2724 7.07615 19.2727 7.07551 19.273 7.07486C19.4841 6.63052 19.5469 6.13013 19.4522 5.64737C19.358 5.16725 19.113 4.72986 18.753 4.3988C18.3987 4.06521 17.9474 3.85265 17.4644 3.79192C16.9828 3.73136 16.4945 3.82485 16.0694 4.05876L2.41051 11.2334L2.38733 11.2456L2.36482 11.259L2.36267 11.2602C1.99007 11.4717 1.68332 11.7824 1.47664 12.1579C1.26756 12.5378 1.16928 12.9687 1.193 13.4017C1.21671 13.8346 1.36147 14.2522 1.61079 14.607C1.85433 14.9535 2.1881 15.2265 2.57563 15.3965C2.5981 15.4069 2.62092 15.4167 2.64406 15.4256L16.9817 21.0978C17.4224 21.2822 17.9099 21.3246 18.376 21.219C18.8453 21.1127 19.2693 20.8618 19.5883 20.5016L19.6022 20.4863Z" stroke="black" stroke-opacity="0.1" stroke-width="2"/>
<defs>
<linearGradient id="paint0_linear_22_4216" x1="28" y1="12.5" x2="1" y2="12.5" gradientUnits="userSpaceOnUse">
<stop stop-color="#FFDF00"/>
<stop offset="1" stop-color="#FDCC0D"/>
</linearGradient>
</defs>
</svg>
