<svg width="26" height="82" viewBox="0 0 26 82" fill="none" xmlns="http://www.w3.org/2000/svg">
<path d="M13 0L13 72" stroke="url(#paint0_linear_22_4210)" stroke-width="1.5" stroke-dasharray="5.17 5.17"/>
<path d="M20.8339 61.8538L20.8282 61.8487C20.4593 61.5224 19.9954 61.3232 19.5048 61.2806C19.0141 61.2379 18.5228 61.3541 18.1031 61.6119L18.0914 61.619L18.0835 61.6238L18.0757 61.6287L12.9244 64.9007L7.45308 62.1975L7.44481 62.1934L7.43646 62.1895L7.42446 62.1838C7.42381 62.1835 7.42317 62.1832 7.42252 62.1829C6.97818 61.9719 6.47778 61.909 5.99503 62.0037C5.51491 62.0979 5.07751 62.3429 4.74646 62.7029C4.41287 63.0573 4.20031 63.5085 4.13957 63.9916C4.07902 64.4732 4.1725 64.9615 4.40642 65.3865L11.5811 79.0454L11.5933 79.0686L11.6066 79.0911L11.6079 79.0933C11.8194 79.4659 12.1301 79.7726 12.5056 79.9793C12.8854 80.1884 13.3164 80.2866 13.7493 80.2629C14.1823 80.2392 14.5999 80.0945 14.9547 79.8451C15.3012 79.6016 15.5741 79.2678 15.7441 78.8803C15.7546 78.8578 15.7643 78.835 15.7732 78.8119L21.4455 64.4742C21.6299 64.0335 21.6723 63.5461 21.5667 63.0799C21.4604 62.6106 21.2094 62.1866 20.8493 61.8676L20.8339 61.8538Z" fill="#2D2D2D"/>
<path d="M20.8339 61.8538L20.8282 61.8487C20.4593 61.5224 19.9954 61.3232 19.5048 61.2806C19.0141 61.2379 18.5228 61.3541 18.1031 61.6119L18.0914 61.619L18.0835 61.6238L18.0757 61.6287L12.9244 64.9007L7.45308 62.1975L7.44481 62.1934L7.43646 62.1895L7.42446 62.1838C7.42381 62.1835 7.42317 62.1832 7.42252 62.1829C6.97818 61.9719 6.47778 61.909 5.99503 62.0037C5.51491 62.0979 5.07751 62.3429 4.74646 62.7029C4.41287 63.0573 4.20031 63.5085 4.13957 63.9916C4.07902 64.4732 4.1725 64.9615 4.40642 65.3865L11.5811 79.0454L11.5933 79.0686L11.6066 79.0911L11.6079 79.0933C11.8194 79.4659 12.1301 79.7726 12.5056 79.9793C12.8854 80.1884 13.3164 80.2866 13.7493 80.2629C14.1823 80.2392 14.5999 80.0945 14.9547 79.8451C15.3012 79.6016 15.5741 79.2678 15.7441 78.8803C15.7546 78.8578 15.7643 78.835 15.7732 78.8119L21.4455 64.4742C21.6299 64.0335 21.6723 63.5461 21.5667 63.0799C21.4604 62.6106 21.2094 62.1866 20.8493 61.8676L20.8339 61.8538Z" stroke="white" stroke-width="2"/>
<path d="M20.8339 61.8538L20.8282 61.8487C20.4593 61.5224 19.9954 61.3232 19.5048 61.2806C19.0141 61.2379 18.5228 61.3541 18.1031 61.6119L18.0914 61.619L18.0835 61.6238L18.0757 61.6287L12.9244 64.9007L7.45308 62.1975L7.44481 62.1934L7.43646 62.1895L7.42446 62.1838C7.42381 62.1835 7.42317 62.1832 7.42252 62.1829C6.97818 61.9719 6.47778 61.909 5.99503 62.0037C5.51491 62.0979 5.07751 62.3429 4.74646 62.7029C4.41287 63.0573 4.20031 63.5085 4.13957 63.9916C4.07902 64.4732 4.1725 64.9615 4.40642 65.3865L11.5811 79.0454L11.5933 79.0686L11.6066 79.0911L11.6079 79.0933C11.8194 79.4659 12.1301 79.7726 12.5056 79.9793C12.8854 80.1884 13.3164 80.2866 13.7493 80.2629C14.1823 80.2392 14.5999 80.0945 14.9547 79.8451C15.3012 79.6016 15.5741 79.2678 15.7441 78.8803C15.7546 78.8578 15.7643 78.835 15.7732 78.8119L21.4455 64.4742C21.6299 64.0335 21.6723 63.5461 21.5667 63.0799C21.4604 62.6106 21.2094 62.1866 20.8493 61.8676L20.8339 61.8538Z" stroke="black" stroke-opacity="0.1" stroke-width="2"/>
<defs>
<linearGradient id="paint0_linear_22_4210" x1="12.5" y1="-2.05996e-08" x2="12.5" y2="72" gradientUnits="userSpaceOnUse">
<stop stop-color="#FFDF00"/>
<stop offset="1" stop-color="#FDCC0D"/>
</linearGradient>
</defs>
</svg>
