<svg width="64" height="63" viewBox="0 0 64 63" fill="none" xmlns="http://www.w3.org/2000/svg">
<path fill-rule="evenodd" clip-rule="evenodd" d="M0.800049 31.5472C0.800049 14.3368 14.8039 0.348206 32.0001 0.348206C49.1962 0.348206 63.2001 14.3368 63.2001 31.5472C63.2001 48.7215 49.1962 62.71 32.0001 62.71C14.8039 62.71 0.800049 48.7215 0.800049 31.5472ZM43.4447 34.7028C43.7759 34.3719 44.1976 33.8605 44.2879 33.7402C44.7698 33.1085 45.0107 32.3263 45.0107 31.5472C45.0107 30.6717 44.7396 29.8595 44.2277 29.1977C44.1857 29.1558 44.1036 29.0664 43.9965 28.9499C43.7962 28.732 43.5086 28.4192 43.2338 28.1448C40.7644 25.4975 34.3196 21.1655 30.9466 19.8419C30.4346 19.6343 29.1396 19.1801 28.447 19.15C27.7844 19.15 27.152 19.3004 26.5497 19.6012C25.7968 20.0224 25.1945 20.6842 24.8632 21.4664C24.6524 22.0079 24.3211 23.6323 24.3211 23.6624C23.9898 25.4373 23.8091 28.3253 23.8091 31.5141C23.8091 34.5554 23.9898 37.3201 24.2609 39.125C24.2683 39.1325 24.2942 39.2616 24.3345 39.4621C24.4568 40.0718 24.7117 41.3419 24.9837 41.8626C25.6462 43.1261 26.9412 43.9082 28.3265 43.9082H28.447C29.3505 43.8781 31.2478 43.096 31.2478 43.0659C34.44 41.7422 40.7342 37.6209 43.264 34.8833L43.4447 34.7028Z" fill="white"/>
</svg>
