<svg width="64" height="64" viewBox="0 0 64 64" fill="none" xmlns="http://www.w3.org/2000/svg">
<rect width="64" height="64" rx="32" fill="url(#paint0_linear_22_1031)"/>
<g opacity="0.9">
<path fill-rule="evenodd" clip-rule="evenodd" d="M7.83337 32.0137C7.83337 18.6748 18.6804 7.83301 32 7.83301C45.3197 7.83301 56.1667 18.6748 56.1667 32.0137C56.1667 45.3246 45.3197 56.1663 32 56.1663C18.6804 56.1663 7.83337 45.3246 7.83337 32.0137ZM40.8643 34.4598C41.1209 34.2034 41.4474 33.807 41.5174 33.7137C41.8907 33.2241 42.0773 32.6179 42.0773 32.014C42.0773 31.3355 41.8673 30.706 41.4708 30.1931C41.4383 30.1606 41.3746 30.0913 41.2917 30.001C41.1365 29.8321 40.9138 29.5897 40.701 29.377C38.7882 27.3252 33.7962 23.9678 31.1836 22.9419C30.7871 22.781 29.784 22.429 29.2475 22.4056C28.7343 22.4056 28.2444 22.5222 27.7779 22.7554C27.1947 23.0818 26.7282 23.5947 26.4716 24.2009C26.3083 24.6206 26.0517 25.8797 26.0517 25.903C25.7951 27.2786 25.6551 29.5169 25.6551 31.9884C25.6551 34.3456 25.7951 36.4883 26.005 37.8872C26.0108 37.893 26.0309 37.9931 26.062 38.1485C26.1568 38.621 26.3542 39.6054 26.5649 40.009C27.0781 40.9882 28.0811 41.5944 29.1542 41.5944H29.2475C29.9473 41.5711 31.4169 40.9649 31.4169 40.9416C33.8895 39.9157 38.7648 36.7215 40.7243 34.5997L40.8643 34.4598Z" fill="white"/>
</g>
<defs>
<linearGradient id="paint0_linear_22_1031" x1="0" y1="32" x2="64" y2="32" gradientUnits="userSpaceOnUse">
<stop stop-color="#FDCC0D"/>
<stop offset="1" stop-color="#FF9529"/>
</linearGradient>
</defs>
</svg>
