<svg width="763" height="204" viewBox="0 0 763 204" fill="none" xmlns="http://www.w3.org/2000/svg">
<path d="M375.949 2.44745C376.197 1.37088 375.524 0.297817 374.448 0.0506958C373.371 -0.196425 372.298 0.475977 372.051 1.55255L375.949 2.44745ZM330.056 41.0672L329.234 39.244L330.056 41.0672ZM273.893 58.6359L274.395 60.5719L273.893 58.6359ZM144.764 90.0746L145.229 92.0198L144.764 90.0746ZM77.4381 109.608L78.3973 111.363L77.4381 109.608ZM41.3666 136.192L40.0722 134.668L41.3666 136.192ZM11.3935 177.612C11.9497 176.657 11.627 175.433 10.6728 174.877C9.71847 174.32 8.49394 174.643 7.93769 175.597L11.3935 177.612ZM15.7305 162.947C15.1226 163.87 15.3775 165.11 16.2998 165.718C17.2221 166.326 18.4625 166.071 19.0703 165.149L15.7305 162.947ZM27.5985 153.347C28.2886 152.485 28.1489 151.226 27.2864 150.536C26.4239 149.846 25.1653 149.986 24.4752 150.848L27.5985 153.347ZM34.518 139.725C33.7271 140.496 33.7111 141.762 34.4822 142.553C35.2533 143.344 36.5196 143.36 37.3104 142.589L34.518 139.725ZM51.2345 130.524C52.0874 129.823 52.21 128.562 51.5082 127.709C50.8064 126.856 49.546 126.734 48.6931 127.435L51.2345 130.524ZM66.749 113.79C65.8313 114.405 65.5856 115.647 66.2003 116.565C66.8151 117.483 68.0573 117.728 68.975 117.114L66.749 113.79ZM86.1377 107.602C87.1517 107.164 87.6185 105.987 87.1804 104.973C86.7423 103.959 85.5652 103.492 84.5512 103.93L86.1377 107.602ZM101.372 98.0162C100.311 98.3216 99.6978 99.4297 100.003 100.491C100.309 101.553 101.417 102.166 102.478 101.86L101.372 98.0162ZM119.421 97.6435C120.499 97.405 121.18 96.3373 120.942 95.2588C120.703 94.1803 119.635 93.4994 118.557 93.7379L119.421 97.6435ZM135.764 90.0605C134.685 90.2942 133.999 91.3589 134.233 92.4384C134.467 93.518 135.531 94.2036 136.611 93.9699L135.764 90.0605ZM153.307 90.0911C154.381 89.8349 155.045 88.7563 154.789 87.6818C154.533 86.6073 153.454 85.944 152.379 86.2001L153.307 90.0911ZM168.542 82.354C167.468 82.6094 166.804 83.6877 167.059 84.7623C167.314 85.8369 168.393 86.501 169.467 86.2456L168.542 82.354ZM185.63 82.4023C186.705 82.1465 187.369 81.068 187.113 79.9935C186.857 78.9189 185.778 78.2552 184.704 78.511L185.63 82.4023ZM200.86 74.6547C199.786 74.912 199.124 75.9914 199.381 77.0656C199.638 78.1397 200.718 78.802 201.792 78.5448L200.86 74.6547ZM217.948 74.6567C219.022 74.3969 219.682 73.316 219.422 72.2424C219.162 71.1688 218.081 70.5091 217.008 70.7689L217.948 74.6567ZM233.142 66.8372C232.069 67.1006 231.413 68.1837 231.676 69.2564C231.94 70.3291 233.023 70.9852 234.095 70.7217L233.142 66.8372ZM250.229 66.7235C251.301 66.4554 251.952 65.3694 251.684 64.2978C251.416 63.2263 250.33 62.575 249.258 62.8432L250.229 66.7235ZM265.353 58.7707C264.283 59.0446 263.638 60.1342 263.911 61.2042C264.185 62.2743 265.275 62.9197 266.345 62.6457L265.353 58.7707ZM281.524 58.7344C282.593 58.4591 283.237 57.3687 282.962 56.299C282.687 55.2293 281.596 54.5853 280.527 54.8606L281.524 58.7344ZM294.74 51.1137C293.675 51.4061 293.049 52.5066 293.341 53.5718C293.633 54.637 294.734 55.2634 295.799 54.9711L294.74 51.1137ZM310.008 50.7823C311.06 50.4455 311.64 49.3197 311.303 48.2678C310.967 47.2158 309.841 46.636 308.789 46.9727L310.008 50.7823ZM322.535 42.0806C321.509 42.489 321.008 43.652 321.416 44.6783C321.824 45.7046 322.987 46.2056 324.014 45.7973L322.535 42.0806ZM337.795 39.5796C338.78 39.0795 339.173 37.8757 338.673 36.8908C338.173 35.9059 336.969 35.5129 335.984 36.013L337.795 39.5796ZM348.922 28.5566C348 29.164 347.744 30.4044 348.352 31.3269C348.959 32.2494 350.2 32.5049 351.122 31.8974L348.922 28.5566ZM363.341 22.3684C364.143 21.6093 364.178 20.3435 363.419 19.541C362.66 18.7386 361.394 18.7034 360.592 19.4625L363.341 22.3684ZM369.555 8.13232C369.038 9.10854 369.41 10.3189 370.387 10.8356C371.363 11.3524 372.573 10.98 373.09 10.0038L369.555 8.13232ZM7.74153 183.987C8.9536 181.841 10.1674 179.715 11.3935 177.612L7.93769 175.597C6.69974 177.721 5.47648 179.864 4.25859 182.02L7.74153 183.987ZM19.0703 165.149C21.754 161.077 24.5687 157.134 27.5985 153.347L24.4752 150.848C21.3545 154.748 18.468 158.794 15.7305 162.947L19.0703 165.149ZM37.3104 142.589C39.0208 140.921 40.8012 139.296 42.661 137.717L40.0722 134.668C38.1402 136.308 36.292 137.995 34.518 139.725L37.3104 142.589ZM42.661 137.717C45.4633 135.338 48.3204 132.922 51.2345 130.524L48.6931 127.435C45.7535 129.854 42.8765 132.287 40.0722 134.668L42.661 137.717ZM68.975 117.114C72.0751 115.037 75.2168 113.101 78.3973 111.363L76.479 107.853C73.1759 109.658 69.931 111.659 66.749 113.79L68.975 117.114ZM78.3973 111.363C80.8981 109.997 83.4831 108.749 86.1377 107.602L84.5512 103.93C81.7957 105.121 79.0988 106.422 76.479 107.853L78.3973 111.363ZM102.478 101.86C108.032 100.262 113.715 98.9054 119.421 97.6435L118.557 93.7379C112.813 95.0083 107.039 96.3855 101.372 98.0162L102.478 101.86ZM136.611 93.9699C139.517 93.3407 142.396 92.6973 145.229 92.0198L144.299 88.1295C141.504 88.7979 138.654 89.4347 135.764 90.0605L136.611 93.9699ZM145.229 92.0198C147.921 91.3759 150.614 90.7331 153.307 90.0911L152.379 86.2001C149.686 86.8424 146.992 87.4854 144.299 88.1295L145.229 92.0198ZM169.467 86.2456C174.854 84.9651 180.243 83.6848 185.63 82.4023L184.704 78.511C179.317 79.7934 173.93 81.0734 168.542 82.354L169.467 86.2456ZM201.792 78.5448C207.179 77.2547 212.564 75.9596 217.948 74.6567L217.008 70.7689C211.627 72.0709 206.245 73.3653 200.86 74.6547L201.792 78.5448ZM234.095 70.7217C239.476 69.4004 244.854 68.0685 250.229 66.7235L249.258 62.8432C243.89 64.1866 238.517 65.517 233.142 66.8372L234.095 70.7217ZM266.345 62.6457C269.029 61.9585 271.713 61.2674 274.395 60.5719L273.391 56.6999C270.713 57.3943 268.034 58.0845 265.353 58.7707L266.345 62.6457ZM274.395 60.5719C276.762 59.958 279.138 59.3484 281.524 58.7344L280.527 54.8606C278.145 55.4737 275.763 56.0849 273.391 56.6999L274.395 60.5719ZM295.799 54.9711C300.553 53.6661 305.303 52.2887 310.008 50.7823L308.789 46.9727C304.152 48.4571 299.459 49.8185 294.74 51.1137L295.799 54.9711ZM324.014 45.7973C326.323 44.8786 328.612 43.9121 330.878 42.8905L329.234 39.244C327.027 40.2391 324.793 41.1823 322.535 42.0806L324.014 45.7973ZM330.878 42.8905C333.057 41.9082 335.386 40.8028 337.795 39.5796L335.984 36.013C333.635 37.2058 331.362 38.2847 329.234 39.244L330.878 42.8905ZM351.122 31.8974C355.434 29.058 359.635 25.8736 363.341 22.3684L360.592 19.4625C357.097 22.7687 353.092 25.8111 348.922 28.5566L351.122 31.8974ZM373.09 10.0038C374.365 7.59585 375.346 5.07466 375.949 2.44745L372.051 1.55255C371.535 3.79962 370.687 5.99399 369.555 8.13232L373.09 10.0038Z" fill="url(#paint0_linear_30_334)"/>
<path d="M12.2673 157.7L12.263 157.692L12.2586 157.684L12.2489 157.666C12.2485 157.665 12.2482 157.665 12.2479 157.664C11.9597 157.133 11.5087 156.709 10.9613 156.454C10.4163 156.2 9.80442 156.127 9.2151 156.245C8.62705 156.355 8.08909 156.649 7.67903 157.085C7.26988 157.52 7.00933 158.073 6.93469 158.666L3.78178 180.081L3.77797 180.107L3.77552 180.133L3.7748 180.14C3.71425 180.665 3.80065 181.196 4.02449 181.674C4.25039 182.156 4.60719 182.566 5.05432 182.856C5.50145 183.146 6.02095 183.304 6.55372 183.313C7.07577 183.322 7.59003 183.188 8.04034 182.924C8.06455 182.911 8.08827 182.897 8.11144 182.882L26.3923 171.312C26.8954 171.009 27.2911 170.555 27.5239 170.015C27.7579 169.472 27.8154 168.87 27.6884 168.293L27.6821 168.263L27.6805 168.255C27.5505 167.665 27.2343 167.132 26.7785 166.735C26.3231 166.338 25.7524 166.098 25.1505 166.05C25.1499 166.05 25.1493 166.05 25.1487 166.05L25.1281 166.048L25.1189 166.048L25.1097 166.047L16.3409 165.485L12.2673 157.7Z" fill="#2D2D2D"/>
<path d="M12.2673 157.7L12.263 157.692L12.2586 157.684L12.2489 157.666C12.2485 157.665 12.2482 157.665 12.2479 157.664C11.9597 157.133 11.5087 156.709 10.9613 156.454C10.4163 156.2 9.80442 156.127 9.2151 156.245C8.62705 156.355 8.08909 156.649 7.67903 157.085C7.26988 157.52 7.00933 158.073 6.93469 158.666L3.78178 180.081L3.77797 180.107L3.77552 180.133L3.7748 180.14C3.71425 180.665 3.80065 181.196 4.02449 181.674C4.25039 182.156 4.60719 182.566 5.05432 182.856C5.50145 183.146 6.02095 183.304 6.55372 183.313C7.07577 183.322 7.59003 183.188 8.04034 182.924C8.06455 182.911 8.08827 182.897 8.11144 182.882L26.3923 171.312C26.8954 171.009 27.2911 170.555 27.5239 170.015C27.7579 169.472 27.8154 168.87 27.6884 168.293L27.6821 168.263L27.6805 168.255C27.5505 167.665 27.2343 167.132 26.7785 166.735C26.3231 166.338 25.7524 166.098 25.1505 166.05C25.1499 166.05 25.1493 166.05 25.1487 166.05L25.1281 166.048L25.1189 166.048L25.1097 166.047L16.3409 165.485L12.2673 157.7Z" stroke="white" stroke-width="2"/>
<path d="M12.2673 157.7L12.263 157.692L12.2586 157.684L12.2489 157.666C12.2485 157.665 12.2482 157.665 12.2479 157.664C11.9597 157.133 11.5087 156.709 10.9613 156.454C10.4163 156.2 9.80442 156.127 9.2151 156.245C8.62705 156.355 8.08909 156.649 7.67903 157.085C7.26988 157.52 7.00933 158.073 6.93469 158.666L3.78178 180.081L3.77797 180.107L3.77552 180.133L3.7748 180.14C3.71425 180.665 3.80065 181.196 4.02449 181.674C4.25039 182.156 4.60719 182.566 5.05432 182.856C5.50145 183.146 6.02095 183.304 6.55372 183.313C7.07577 183.322 7.59003 183.188 8.04034 182.924C8.06455 182.911 8.08827 182.897 8.11144 182.882L26.3923 171.312C26.8954 171.009 27.2911 170.555 27.5239 170.015C27.7579 169.472 27.8154 168.87 27.6884 168.293L27.6821 168.263L27.6805 168.255C27.5505 167.665 27.2343 167.132 26.7785 166.735C26.3231 166.338 25.7524 166.098 25.1505 166.05C25.1499 166.05 25.1493 166.05 25.1487 166.05L25.1281 166.048L25.1189 166.048L25.1097 166.047L16.3409 165.485L12.2673 157.7Z" stroke="black" stroke-opacity="0.1" stroke-width="2"/>
<path d="M375 2C379.176 20.1579 403.124 33.9106 419.028 41.0672C436.891 49.1059 456.385 53.7413 475.298 58.6359C518.249 69.7518 561.514 79.7723 604.673 90.0746C626.758 95.3465 651.945 98.5994 672.127 109.608C685.017 116.64 697.142 126.766 708.267 136.192C723.805 149.358 746.168 184.624 756 202" stroke="url(#paint1_linear_30_334)" stroke-width="4" stroke-dasharray="16 16"/>
<path d="M749.81 176.439L749.814 176.432L749.819 176.424L749.83 176.407C749.83 176.406 749.831 176.405 749.831 176.405C750.15 175.892 750.625 175.495 751.187 175.272C751.746 175.051 752.361 175.014 752.942 175.167C753.523 175.311 754.042 175.637 754.426 176.096C754.809 176.554 755.037 177.122 755.076 177.717L756.964 199.281L756.966 199.307L756.967 199.333L756.967 199.341C756.997 199.868 756.879 200.393 756.628 200.857C756.374 201.325 755.993 201.713 755.53 201.976C755.067 202.239 754.539 202.367 754.006 202.345C753.485 202.323 752.979 202.158 752.545 201.869C752.522 201.854 752.499 201.838 752.477 201.822L734.908 189.197C734.424 188.864 734.056 188.388 733.855 187.835C733.653 187.28 733.631 186.675 733.792 186.106L733.8 186.077L733.802 186.069C733.967 185.488 734.314 184.974 734.792 184.605C735.27 184.236 735.854 184.03 736.458 184.017C736.458 184.017 736.459 184.017 736.459 184.017L736.48 184.017L736.489 184.016L736.498 184.016L745.285 183.972L749.81 176.439Z" fill="#2D2D2D"/>
<path d="M749.81 176.439L749.814 176.432L749.819 176.424L749.83 176.407C749.83 176.406 749.831 176.405 749.831 176.405C750.15 175.892 750.625 175.495 751.187 175.272C751.746 175.051 752.361 175.014 752.942 175.167C753.523 175.311 754.042 175.637 754.426 176.096C754.809 176.554 755.037 177.122 755.076 177.717L756.964 199.281L756.966 199.307L756.967 199.333L756.967 199.341C756.997 199.868 756.879 200.393 756.628 200.857C756.374 201.325 755.993 201.713 755.53 201.976C755.067 202.239 754.539 202.367 754.006 202.345C753.485 202.323 752.979 202.158 752.545 201.869C752.522 201.854 752.499 201.838 752.477 201.822L734.908 189.197C734.424 188.864 734.056 188.388 733.855 187.835C733.653 187.28 733.631 186.675 733.792 186.106L733.8 186.077L733.802 186.069C733.967 185.488 734.314 184.974 734.792 184.605C735.27 184.236 735.854 184.03 736.458 184.017C736.458 184.017 736.459 184.017 736.459 184.017L736.48 184.017L736.489 184.016L736.498 184.016L745.285 183.972L749.81 176.439Z" stroke="white" stroke-width="2"/>
<path d="M749.81 176.439L749.814 176.432L749.819 176.424L749.83 176.407C749.83 176.406 749.831 176.405 749.831 176.405C750.15 175.892 750.625 175.495 751.187 175.272C751.746 175.051 752.361 175.014 752.942 175.167C753.523 175.311 754.042 175.637 754.426 176.096C754.809 176.554 755.037 177.122 755.076 177.717L756.964 199.281L756.966 199.307L756.967 199.333L756.967 199.341C756.997 199.868 756.879 200.393 756.628 200.857C756.374 201.325 755.993 201.713 755.53 201.976C755.067 202.239 754.539 202.367 754.006 202.345C753.485 202.323 752.979 202.158 752.545 201.869C752.522 201.854 752.499 201.838 752.477 201.822L734.908 189.197C734.424 188.864 734.056 188.388 733.855 187.835C733.653 187.28 733.631 186.675 733.792 186.106L733.8 186.077L733.802 186.069C733.967 185.488 734.314 184.974 734.792 184.605C735.27 184.236 735.854 184.03 736.458 184.017C736.458 184.017 736.459 184.017 736.459 184.017L736.48 184.017L736.489 184.016L736.498 184.016L745.285 183.972L749.81 176.439Z" stroke="black" stroke-opacity="0.1" stroke-width="2"/>
<defs>
<linearGradient id="paint0_linear_30_334" x1="6.00006" y1="92.5019" x2="374" y2="92.5019" gradientUnits="userSpaceOnUse">
<stop stop-color="#FFDF00"/>
<stop offset="1" stop-color="#FDCC0D"/>
</linearGradient>
<linearGradient id="paint1_linear_30_334" x1="756" y1="102" x2="375" y2="102" gradientUnits="userSpaceOnUse">
<stop stop-color="#FFDF00"/>
<stop offset="1" stop-color="#FDCC0D"/>
</linearGradient>
</defs>
</svg>
