<svg width="36" height="243" viewBox="0 0 36 243" fill="none" xmlns="http://www.w3.org/2000/svg">
<path d="M18 0L18 221" stroke="url(#paint0_linear_22_2140)" stroke-width="4" stroke-dasharray="16 16"/>
<path d="M10.0816 216.457L10.0733 216.453L10.065 216.449L10.0467 216.44C10.0461 216.44 10.0455 216.44 10.0449 216.439C9.49935 216.18 8.88498 216.103 8.29226 216.219C7.70222 216.335 7.16474 216.636 6.75823 217.079C6.34781 217.514 6.08631 218.069 6.01165 218.663C5.93716 219.255 6.05256 219.856 6.34104 220.378L16.4069 239.541L16.4191 239.565L16.4324 239.587L16.4363 239.594C16.6962 240.053 17.0788 240.431 17.5414 240.686C18.0082 240.943 18.5377 241.063 19.0698 241.034C19.6018 241.005 20.115 240.827 20.551 240.521C20.9782 240.221 21.3144 239.809 21.5231 239.331C21.5349 239.306 21.5457 239.28 21.5556 239.255L29.5143 219.138C29.7419 218.596 29.7945 217.996 29.6645 217.423C29.5339 216.846 29.2255 216.325 28.783 215.934L28.7603 215.913L28.7546 215.908C28.3018 215.508 27.7324 215.263 27.1301 215.211C26.5285 215.159 25.926 215.301 25.4112 215.617C25.4107 215.617 25.4102 215.617 25.4097 215.617L25.3921 215.628L25.3842 215.633L25.3764 215.638L17.9593 220.349L10.0816 216.457Z" fill="#2D2D2D"/>
<path d="M10.0816 216.457L10.0733 216.453L10.065 216.449L10.0467 216.44C10.0461 216.44 10.0455 216.44 10.0449 216.439C9.49935 216.18 8.88498 216.103 8.29226 216.219C7.70222 216.335 7.16474 216.636 6.75823 217.079C6.34781 217.514 6.08631 218.069 6.01165 218.663C5.93716 219.255 6.05256 219.856 6.34104 220.378L16.4069 239.541L16.4191 239.565L16.4324 239.587L16.4363 239.594C16.6962 240.053 17.0788 240.431 17.5414 240.686C18.0082 240.943 18.5377 241.063 19.0698 241.034C19.6018 241.005 20.115 240.827 20.551 240.521C20.9782 240.221 21.3144 239.809 21.5231 239.331C21.5349 239.306 21.5457 239.28 21.5556 239.255L29.5143 219.138C29.7419 218.596 29.7945 217.996 29.6645 217.423C29.5339 216.846 29.2255 216.325 28.783 215.934L28.7603 215.913L28.7546 215.908C28.3018 215.508 27.7324 215.263 27.1301 215.211C26.5285 215.159 25.926 215.301 25.4112 215.617C25.4107 215.617 25.4102 215.617 25.4097 215.617L25.3921 215.628L25.3842 215.633L25.3764 215.638L17.9593 220.349L10.0816 216.457Z" stroke="white" stroke-width="2"/>
<path d="M10.0816 216.457L10.0733 216.453L10.065 216.449L10.0467 216.44C10.0461 216.44 10.0455 216.44 10.0449 216.439C9.49935 216.18 8.88498 216.103 8.29226 216.219C7.70222 216.335 7.16474 216.636 6.75823 217.079C6.34781 217.514 6.08631 218.069 6.01165 218.663C5.93716 219.255 6.05256 219.856 6.34104 220.378L16.4069 239.541L16.4191 239.565L16.4324 239.587L16.4363 239.594C16.6962 240.053 17.0788 240.431 17.5414 240.686C18.0082 240.943 18.5377 241.063 19.0698 241.034C19.6018 241.005 20.115 240.827 20.551 240.521C20.9782 240.221 21.3144 239.809 21.5231 239.331C21.5349 239.306 21.5457 239.28 21.5556 239.255L29.5143 219.138C29.7419 218.596 29.7945 217.996 29.6645 217.423C29.5339 216.846 29.2255 216.325 28.783 215.934L28.7603 215.913L28.7546 215.908C28.3018 215.508 27.7324 215.263 27.1301 215.211C26.5285 215.159 25.926 215.301 25.4112 215.617C25.4107 215.617 25.4102 215.617 25.4097 215.617L25.3921 215.628L25.3842 215.633L25.3764 215.638L17.9593 220.349L10.0816 216.457Z" stroke="black" stroke-opacity="0.1" stroke-width="2"/>
<defs>
<linearGradient id="paint0_linear_22_2140" x1="17.5" y1="-2.05996e-08" x2="17.5" y2="221" gradientUnits="userSpaceOnUse">
<stop stop-color="#FFDF00"/>
<stop offset="1" stop-color="#FDCC0D"/>
</linearGradient>
</defs>
</svg>
