<svg width="621" height="723" viewBox="0 0 621 723" fill="none" xmlns="http://www.w3.org/2000/svg">
<path d="M301 376H432C535.277 376 619 292.277 619 189V189C619 85.7228 535.277 2 432 2H301" stroke="url(#paint0_linear_30_333)" stroke-width="4" stroke-linejoin="round" stroke-dasharray="16 16"/>
<path d="M575.214 81.1592L575.205 81.1603L575.196 81.1615L575.176 81.1642C575.175 81.1643 575.174 81.1644 575.174 81.1644C574.575 81.2424 574.017 81.5107 573.582 81.9297C573.149 82.3469 572.861 82.8915 572.759 83.484C572.65 84.0723 572.731 84.68 572.99 85.2194C573.249 85.7576 573.672 86.1997 574.197 86.4823L593.046 97.126L593.069 97.1389L593.092 97.1506L593.099 97.154C593.566 97.399 594.093 97.5094 594.619 97.4725C595.151 97.4353 595.661 97.2496 596.093 96.9366C596.524 96.6237 596.859 96.1959 597.059 95.7021C597.255 95.2182 597.314 94.6899 597.23 94.175C597.227 94.1476 597.222 94.1204 597.216 94.0934L592.996 72.8749C592.893 72.2962 592.612 71.7638 592.192 71.3524C591.77 70.9389 591.228 70.6685 590.644 70.5794L590.614 70.5746L590.606 70.5734C590.009 70.4824 589.398 70.5857 588.863 70.8683C588.33 71.1506 587.9 71.5968 587.639 72.1412C587.639 72.1417 587.639 72.1422 587.638 72.1428L587.629 72.1614L587.625 72.1697L587.621 72.178L583.944 80.1582L575.214 81.1592Z" fill="#2D2D2D"/>
<path d="M575.214 81.1592L575.205 81.1603L575.196 81.1615L575.176 81.1642C575.175 81.1643 575.174 81.1644 575.174 81.1644C574.575 81.2424 574.017 81.5107 573.582 81.9297C573.149 82.3469 572.861 82.8915 572.759 83.484C572.65 84.0723 572.731 84.68 572.99 85.2194C573.249 85.7576 573.672 86.1997 574.197 86.4823L593.046 97.126L593.069 97.1389L593.092 97.1506L593.099 97.154C593.566 97.399 594.093 97.5094 594.619 97.4725C595.151 97.4353 595.661 97.2496 596.093 96.9366C596.524 96.6237 596.859 96.1959 597.059 95.7021C597.255 95.2182 597.314 94.6899 597.23 94.175C597.227 94.1476 597.222 94.1204 597.216 94.0934L592.996 72.8749C592.893 72.2962 592.612 71.7638 592.192 71.3524C591.77 70.9389 591.228 70.6685 590.644 70.5794L590.614 70.5746L590.606 70.5734C590.009 70.4824 589.398 70.5857 588.863 70.8683C588.33 71.1506 587.9 71.5968 587.639 72.1412C587.639 72.1417 587.639 72.1422 587.638 72.1428L587.629 72.1614L587.625 72.1697L587.621 72.178L583.944 80.1582L575.214 81.1592Z" stroke="white" stroke-width="2"/>
<path d="M575.214 81.1592L575.205 81.1603L575.196 81.1615L575.176 81.1642C575.175 81.1643 575.174 81.1644 575.174 81.1644C574.575 81.2424 574.017 81.5107 573.582 81.9297C573.149 82.3469 572.861 82.8915 572.759 83.484C572.65 84.0723 572.731 84.68 572.99 85.2194C573.249 85.7576 573.672 86.1997 574.197 86.4823L593.046 97.126L593.069 97.1389L593.092 97.1506L593.099 97.154C593.566 97.399 594.093 97.5094 594.619 97.4725C595.151 97.4353 595.661 97.2496 596.093 96.9366C596.524 96.6237 596.859 96.1959 597.059 95.7021C597.255 95.2182 597.314 94.6899 597.23 94.175C597.227 94.1476 597.222 94.1204 597.216 94.0934L592.996 72.8749C592.893 72.2962 592.612 71.7638 592.192 71.3524C591.77 70.9389 591.228 70.6685 590.644 70.5794L590.614 70.5746L590.606 70.5734C590.009 70.4824 589.398 70.5857 588.863 70.8683C588.33 71.1506 587.9 71.5968 587.639 72.1412C587.639 72.1417 587.639 72.1422 587.638 72.1428L587.629 72.1614L587.625 72.1697L587.621 72.178L583.944 80.1582L575.214 81.1592Z" stroke="black" stroke-opacity="0.1" stroke-width="2"/>
<path d="M297 720.5V720.5C297 712.573 290.43 706.225 282.508 706.496L150.141 711.029C70.5147 713.756 4.22884 650.451 3.29158 570.784L2.98929 545.09C1.89444 452.028 77.0329 376 170.102 376H319" stroke="url(#paint1_linear_30_333)" stroke-width="4" stroke-linejoin="round" stroke-dasharray="16 16"/>
<path d="M291.86 368.399L291.865 368.391L291.869 368.383L291.879 368.366C291.88 368.365 291.88 368.365 291.88 368.364C292.186 367.843 292.317 367.238 292.253 366.637C292.19 366.04 291.937 365.478 291.531 365.034C291.133 364.587 290.604 364.278 290.019 364.152C289.435 364.025 288.827 364.088 288.281 364.329L268.31 372.678L268.286 372.688L268.262 372.699L268.255 372.702C267.775 372.921 267.365 373.269 267.071 373.708C266.774 374.15 266.607 374.667 266.589 375.2C266.572 375.732 266.704 376.259 266.971 376.72C267.233 377.172 267.613 377.543 268.071 377.793C268.095 377.807 268.12 377.82 268.144 377.832L287.487 387.522C288.007 387.796 288.6 387.901 289.182 387.822C289.768 387.743 290.314 387.481 290.743 387.074L290.765 387.054L290.77 387.048C291.209 386.632 291.503 386.087 291.607 385.491C291.712 384.896 291.623 384.284 291.354 383.743C291.354 383.743 291.353 383.742 291.353 383.742L291.344 383.723L291.34 383.715L291.336 383.707L287.292 375.906L291.86 368.399Z" fill="#2D2D2D"/>
<path d="M291.86 368.399L291.865 368.391L291.869 368.383L291.879 368.366C291.88 368.365 291.88 368.365 291.88 368.364C292.186 367.843 292.317 367.238 292.253 366.637C292.19 366.04 291.937 365.478 291.531 365.034C291.133 364.587 290.604 364.278 290.019 364.152C289.435 364.025 288.827 364.088 288.281 364.329L268.31 372.678L268.286 372.688L268.262 372.699L268.255 372.702C267.775 372.921 267.365 373.269 267.071 373.708C266.774 374.15 266.607 374.667 266.589 375.2C266.572 375.732 266.704 376.259 266.971 376.72C267.233 377.172 267.613 377.543 268.071 377.793C268.095 377.807 268.12 377.82 268.144 377.832L287.487 387.522C288.007 387.796 288.6 387.901 289.182 387.822C289.768 387.743 290.314 387.481 290.743 387.074L290.765 387.054L290.77 387.048C291.209 386.632 291.503 386.087 291.607 385.491C291.712 384.896 291.623 384.284 291.354 383.743C291.354 383.743 291.353 383.742 291.353 383.742L291.344 383.723L291.34 383.715L291.336 383.707L287.292 375.906L291.86 368.399Z" stroke="white" stroke-width="2"/>
<path d="M291.86 368.399L291.865 368.391L291.869 368.383L291.879 368.366C291.88 368.365 291.88 368.365 291.88 368.364C292.186 367.843 292.317 367.238 292.253 366.637C292.19 366.04 291.937 365.478 291.531 365.034C291.133 364.587 290.604 364.278 290.019 364.152C289.435 364.025 288.827 364.088 288.281 364.329L268.31 372.678L268.286 372.688L268.262 372.699L268.255 372.702C267.775 372.921 267.365 373.269 267.071 373.708C266.774 374.15 266.607 374.667 266.589 375.2C266.572 375.732 266.704 376.259 266.971 376.72C267.233 377.172 267.613 377.543 268.071 377.793C268.095 377.807 268.12 377.82 268.144 377.832L287.487 387.522C288.007 387.796 288.6 387.901 289.182 387.822C289.768 387.743 290.314 387.481 290.743 387.074L290.765 387.054L290.77 387.048C291.209 386.632 291.503 386.087 291.607 385.491C291.712 384.896 291.623 384.284 291.354 383.743C291.354 383.743 291.353 383.742 291.353 383.742L291.344 383.723L291.34 383.715L291.336 383.707L287.292 375.906L291.86 368.399Z" stroke="black" stroke-opacity="0.1" stroke-width="2"/>
<defs>
<linearGradient id="paint0_linear_30_333" x1="301" y1="189" x2="619" y2="189" gradientUnits="userSpaceOnUse">
<stop stop-color="#FFDF00"/>
<stop offset="1" stop-color="#FDCC0D"/>
</linearGradient>
<linearGradient id="paint1_linear_30_333" x1="319" y1="548.25" x2="1" y2="548.25" gradientUnits="userSpaceOnUse">
<stop stop-color="#FFDF00"/>
<stop offset="1" stop-color="#FDCC0D"/>
</linearGradient>
</defs>
</svg>
