<svg width="18" height="17" viewBox="0 0 18 17" fill="none" xmlns="http://www.w3.org/2000/svg">
<g id="youtube 1" opacity="0.8">
<path id="Vector" d="M17.1767 4.33755C16.9804 3.59849 16.4021 3.01643 15.6678 2.8189C14.3369 2.45996 8.99999 2.45996 8.99999 2.45996C8.99999 2.45996 3.66311 2.45996 2.33214 2.8189C1.59786 3.01646 1.01955 3.59849 0.823269 4.33755C0.466644 5.67715 0.466644 8.47209 0.466644 8.47209C0.466644 8.47209 0.466644 11.267 0.823269 12.6066C1.01955 13.3457 1.59786 13.9035 2.33214 14.101C3.66311 14.46 8.99999 14.46 8.99999 14.46C8.99999 14.46 14.3369 14.46 15.6678 14.101C16.4021 13.9035 16.9804 13.3457 17.1767 12.6066C17.5333 11.267 17.5333 8.47209 17.5333 8.47209C17.5333 8.47209 17.5333 5.67715 17.1767 4.33755ZM7.25452 11.0097V5.93449L11.7151 8.47215L7.25452 11.0097Z" fill="white"/>
</g>
</svg>
